<svg width="2174" height="803" viewBox="0 0 2174 803" fill="none" xmlns="http://www.w3.org/2000/svg">
<line x1="211" y1="419" x2="911" y2="419" stroke="#737370" stroke-width="10" stroke-dasharray="20 20"/>
<rect x="536" y="74" width="50" height="700" rx="25" fill="#006CA9"/>
<rect x="1747" y="74" width="50" height="700" rx="25" fill="#006CA9"/>
<rect x="1737" y="99.3516" width="50" height="400" rx="25" transform="rotate(-45 1737 99.3516)" fill="#006CA9"/>
<rect x="1524.36" y="378.66" width="45" height="395" rx="22.5" transform="rotate(-135 1524.36 378.66)" stroke="#006CA9" stroke-width="5" stroke-dasharray="10 10"/>
<rect x="1772.36" y="770.66" width="45" height="395" rx="22.5" transform="rotate(-135 1772.36 770.66)" stroke="#006CA9" stroke-width="5" stroke-dasharray="10 10"/>
<rect x="1492.54" y="491.352" width="45" height="395" rx="22.5" transform="rotate(-45 1492.54 491.352)" stroke="#006CA9" stroke-width="5" stroke-dasharray="10 10"/>
<path d="M641.908 203.388V187.727H649.472V215H642.21V210.046H641.926C641.31 211.644 640.287 212.929 638.854 213.899C637.434 214.87 635.7 215.355 633.652 215.355C631.829 215.355 630.225 214.941 628.84 214.112C627.455 213.284 626.372 212.106 625.591 210.579C624.821 209.052 624.431 207.223 624.419 205.092V187.727H631.983V203.743C631.995 205.353 632.427 206.625 633.279 207.56C634.131 208.496 635.273 208.963 636.706 208.963C637.617 208.963 638.47 208.756 639.263 208.342C640.056 207.915 640.695 207.288 641.18 206.46C641.677 205.631 641.92 204.607 641.908 203.388ZM663.086 199.233V215H655.522V187.727H662.731V192.539H663.051C663.654 190.953 664.667 189.698 666.087 188.775C667.507 187.84 669.23 187.372 671.254 187.372C673.148 187.372 674.799 187.786 676.208 188.615C677.616 189.444 678.711 190.627 679.493 192.166C680.274 193.693 680.664 195.516 680.664 197.635V215H673.1V198.984C673.112 197.315 672.686 196.013 671.822 195.078C670.958 194.131 669.768 193.658 668.253 193.658C667.235 193.658 666.336 193.877 665.554 194.315C664.785 194.753 664.181 195.392 663.743 196.232C663.317 197.061 663.098 198.061 663.086 199.233ZM686.626 215V187.727H694.19V215H686.626ZM690.426 184.212C689.301 184.212 688.336 183.839 687.531 183.093C686.738 182.335 686.342 181.43 686.342 180.376C686.342 179.335 686.738 178.441 687.531 177.695C688.336 176.938 689.301 176.559 690.426 176.559C691.55 176.559 692.509 176.938 693.302 177.695C694.107 178.441 694.509 179.335 694.509 180.376C694.509 181.43 694.107 182.335 693.302 183.093C692.509 183.839 691.55 184.212 690.426 184.212ZM714.755 187.727V193.409H698.331V187.727H714.755ZM702.06 181.193H709.624V206.619C709.624 207.318 709.73 207.862 709.944 208.253C710.157 208.632 710.453 208.898 710.831 209.052C711.222 209.206 711.672 209.283 712.181 209.283C712.536 209.283 712.891 209.253 713.246 209.194C713.601 209.123 713.873 209.07 714.063 209.034L715.252 214.663C714.874 214.781 714.341 214.917 713.654 215.071C712.968 215.237 712.133 215.337 711.151 215.373C709.328 215.444 707.73 215.201 706.357 214.645C704.996 214.089 703.936 213.224 703.179 212.053C702.421 210.881 702.048 209.401 702.06 207.614V181.193ZM742.032 195.504L735.108 195.93C734.989 195.339 734.735 194.806 734.344 194.332C733.954 193.847 733.439 193.462 732.8 193.178C732.172 192.882 731.421 192.734 730.545 192.734C729.373 192.734 728.384 192.983 727.579 193.48C726.774 193.965 726.372 194.616 726.372 195.433C726.372 196.084 726.632 196.635 727.153 197.085C727.674 197.534 728.568 197.895 729.834 198.168L734.77 199.162C737.422 199.706 739.399 200.582 740.701 201.79C742.003 202.997 742.654 204.583 742.654 206.548C742.654 208.336 742.127 209.904 741.074 211.254C740.032 212.603 738.6 213.656 736.777 214.414C734.966 215.16 732.876 215.533 730.509 215.533C726.899 215.533 724.022 214.781 721.88 213.278C719.749 211.763 718.5 209.703 718.133 207.099L725.573 206.708C725.798 207.809 726.342 208.649 727.206 209.229C728.071 209.798 729.177 210.082 730.527 210.082C731.853 210.082 732.918 209.827 733.723 209.318C734.54 208.797 734.954 208.129 734.966 207.312C734.954 206.625 734.664 206.063 734.096 205.625C733.528 205.175 732.652 204.832 731.468 204.595L726.745 203.654C724.081 203.121 722.099 202.198 720.797 200.884C719.506 199.57 718.861 197.895 718.861 195.859C718.861 194.107 719.335 192.598 720.282 191.332C721.241 190.065 722.584 189.089 724.312 188.402C726.052 187.715 728.088 187.372 730.42 187.372C733.865 187.372 736.576 188.1 738.552 189.556C740.541 191.012 741.701 192.995 742.032 195.504ZM755.638 210.028L755.442 211.982C755.289 213.544 754.993 215.101 754.555 216.651C754.129 218.214 753.679 219.628 753.205 220.895C752.744 222.161 752.371 223.156 752.087 223.878H747.186C747.364 223.179 747.606 222.203 747.914 220.948C748.222 219.705 748.512 218.308 748.784 216.758C749.056 215.207 749.228 213.627 749.299 212.017L749.388 210.028H755.638ZM772.417 215V187.727H779.75V192.486H780.034C780.531 190.793 781.366 189.515 782.538 188.651C783.71 187.775 785.059 187.337 786.586 187.337C786.965 187.337 787.373 187.36 787.811 187.408C788.249 187.455 788.634 187.52 788.965 187.603V194.315C788.61 194.208 788.119 194.113 787.491 194.031C786.864 193.948 786.29 193.906 785.769 193.906C784.656 193.906 783.662 194.149 782.786 194.634C781.922 195.108 781.236 195.771 780.727 196.623C780.229 197.475 779.981 198.458 779.981 199.57V215H772.417ZM799.872 215.515C798.132 215.515 796.581 215.213 795.22 214.609C793.858 213.994 792.781 213.088 791.988 211.893C791.207 210.685 790.816 209.182 790.816 207.383C790.816 205.868 791.094 204.595 791.651 203.565C792.207 202.536 792.965 201.707 793.923 201.08C794.882 200.452 795.971 199.979 797.191 199.659C798.422 199.339 799.712 199.115 801.061 198.984C802.647 198.819 803.926 198.665 804.896 198.523C805.867 198.369 806.571 198.144 807.009 197.848C807.447 197.552 807.666 197.114 807.666 196.534V196.428C807.666 195.303 807.311 194.433 806.601 193.817C805.903 193.202 804.908 192.894 803.618 192.894C802.257 192.894 801.174 193.196 800.369 193.8C799.564 194.392 799.031 195.137 798.771 196.037L791.775 195.469C792.13 193.812 792.829 192.379 793.87 191.172C794.912 189.953 796.255 189.018 797.901 188.366C799.558 187.704 801.476 187.372 803.654 187.372C805.169 187.372 806.619 187.55 808.004 187.905C809.401 188.26 810.637 188.81 811.715 189.556C812.804 190.302 813.662 191.261 814.289 192.433C814.917 193.593 815.23 194.983 815.23 196.605V215H808.057V211.218H807.844C807.406 212.07 806.82 212.822 806.086 213.473C805.352 214.112 804.47 214.615 803.441 214.982C802.411 215.337 801.221 215.515 799.872 215.515ZM802.038 210.295C803.151 210.295 804.133 210.076 804.985 209.638C805.838 209.188 806.506 208.584 806.992 207.827C807.477 207.069 807.72 206.211 807.72 205.252V202.358C807.483 202.512 807.157 202.654 806.743 202.784C806.341 202.902 805.885 203.015 805.376 203.121C804.867 203.216 804.358 203.305 803.849 203.388C803.34 203.459 802.878 203.524 802.464 203.583C801.576 203.713 800.801 203.92 800.138 204.205C799.475 204.489 798.96 204.873 798.593 205.359C798.226 205.832 798.043 206.424 798.043 207.134C798.043 208.164 798.416 208.951 799.161 209.496C799.919 210.028 800.878 210.295 802.038 210.295ZM828.662 199.233V215H821.099V187.727H828.307V192.539H828.627C829.231 190.953 830.243 189.698 831.663 188.775C833.084 187.84 834.806 187.372 836.83 187.372C838.724 187.372 840.375 187.786 841.784 188.615C843.193 189.444 844.287 190.627 845.069 192.166C845.85 193.693 846.241 195.516 846.241 197.635V215H838.677V198.984C838.689 197.315 838.262 196.013 837.398 195.078C836.534 194.131 835.345 193.658 833.829 193.658C832.811 193.658 831.912 193.877 831.131 194.315C830.361 194.753 829.757 195.392 829.319 196.232C828.893 197.061 828.674 198.061 828.662 199.233ZM864.489 225.795C862.039 225.795 859.938 225.458 858.186 224.783C856.446 224.121 855.061 223.215 854.031 222.067C853.001 220.919 852.332 219.628 852.025 218.196L859.02 217.255C859.233 217.799 859.571 218.308 860.032 218.782C860.494 219.255 861.104 219.634 861.861 219.918C862.631 220.214 863.566 220.362 864.667 220.362C866.312 220.362 867.667 219.96 868.733 219.155C869.81 218.362 870.348 217.03 870.348 215.16V210.17H870.029C869.697 210.928 869.2 211.644 868.537 212.319C867.874 212.994 867.022 213.544 865.98 213.97C864.939 214.396 863.696 214.609 862.252 214.609C860.204 214.609 858.34 214.136 856.659 213.189C854.99 212.23 853.658 210.768 852.664 208.803C851.681 206.826 851.19 204.329 851.19 201.31C851.19 198.221 851.693 195.64 852.699 193.569C853.705 191.497 855.043 189.947 856.712 188.917C858.393 187.887 860.234 187.372 862.234 187.372C863.761 187.372 865.039 187.633 866.069 188.153C867.099 188.662 867.928 189.302 868.555 190.071C869.194 190.829 869.685 191.574 870.029 192.308H870.313V187.727H877.824V215.266C877.824 217.586 877.255 219.528 876.119 221.09C874.983 222.653 873.408 223.825 871.396 224.606C869.395 225.399 867.093 225.795 864.489 225.795ZM864.649 208.928C865.868 208.928 866.898 208.626 867.738 208.022C868.591 207.406 869.242 206.531 869.691 205.394C870.153 204.246 870.384 202.873 870.384 201.275C870.384 199.677 870.159 198.292 869.709 197.12C869.259 195.936 868.608 195.019 867.756 194.368C866.904 193.717 865.868 193.391 864.649 193.391C863.406 193.391 862.358 193.729 861.506 194.403C860.654 195.066 860.009 195.99 859.571 197.173C859.133 198.357 858.914 199.724 858.914 201.275C858.914 202.849 859.133 204.21 859.571 205.359C860.02 206.495 860.666 207.377 861.506 208.004C862.358 208.62 863.406 208.928 864.649 208.928ZM896.272 215.533C893.466 215.533 891.051 214.964 889.027 213.828C887.015 212.68 885.464 211.058 884.375 208.963C883.286 206.856 882.742 204.364 882.742 201.488C882.742 198.683 883.286 196.22 884.375 194.102C885.464 191.983 886.997 190.331 888.974 189.148C890.963 187.964 893.295 187.372 895.97 187.372C897.769 187.372 899.444 187.662 900.995 188.242C902.557 188.81 903.918 189.669 905.078 190.817C906.25 191.965 907.162 193.409 907.813 195.149C908.464 196.877 908.789 198.902 908.789 201.222V203.299H885.76V198.612H901.669C901.669 197.522 901.433 196.558 900.959 195.717C900.486 194.877 899.829 194.22 898.988 193.746C898.16 193.261 897.195 193.018 896.094 193.018C894.946 193.018 893.928 193.285 893.04 193.817C892.164 194.338 891.478 195.043 890.98 195.93C890.483 196.806 890.229 197.783 890.217 198.86V203.317C890.217 204.666 890.466 205.832 890.963 206.815C891.472 207.797 892.188 208.555 893.111 209.087C894.034 209.62 895.129 209.886 896.396 209.886C897.236 209.886 898.006 209.768 898.704 209.531C899.403 209.295 900 208.939 900.498 208.466C900.995 207.992 901.373 207.412 901.634 206.726L908.63 207.188C908.275 208.868 907.547 210.336 906.446 211.591C905.357 212.834 903.948 213.804 902.22 214.503C900.503 215.189 898.521 215.533 896.272 215.533ZM918.147 215.462C916.975 215.462 915.969 215.047 915.128 214.219C914.3 213.378 913.885 212.372 913.885 211.2C913.885 210.04 914.3 209.046 915.128 208.217C915.969 207.389 916.975 206.974 918.147 206.974C919.283 206.974 920.277 207.389 921.13 208.217C921.982 209.046 922.408 210.04 922.408 211.2C922.408 211.982 922.207 212.698 921.804 213.349C921.414 213.988 920.899 214.503 920.26 214.893C919.62 215.272 918.916 215.462 918.147 215.462ZM918.147 196.357C916.975 196.357 915.969 195.942 915.128 195.114C914.3 194.285 913.885 193.279 913.885 192.095C913.885 190.935 914.3 189.947 915.128 189.13C915.969 188.301 916.975 187.887 918.147 187.887C919.283 187.887 920.277 188.301 921.13 189.13C921.982 189.947 922.408 190.935 922.408 192.095C922.408 192.888 922.207 193.61 921.804 194.261C921.414 194.901 920.899 195.41 920.26 195.788C919.62 196.167 918.916 196.357 918.147 196.357ZM681.135 280.297V235.357H695.144V241.004H688.45V274.633H695.144V280.297H681.135ZM715.07 239.636V276H707.382V246.934H707.169L698.842 252.154V245.336L707.844 239.636H715.07ZM730.052 271.028L729.857 272.982C729.703 274.544 729.407 276.101 728.969 277.651C728.543 279.214 728.093 280.628 727.619 281.895C727.158 283.161 726.785 284.156 726.501 284.878H721.6C721.778 284.179 722.02 283.203 722.328 281.948C722.636 280.705 722.926 279.308 723.198 277.758C723.47 276.207 723.642 274.627 723.713 273.017L723.802 271.028H730.052ZM762.58 239.636V276H754.892V246.934H754.679L746.352 252.154V245.336L755.354 239.636H762.58ZM785.481 276.799C782.427 276.787 779.799 276.036 777.597 274.544C775.407 273.053 773.72 270.892 772.537 268.063C771.365 265.234 770.785 261.831 770.797 257.854C770.797 253.888 771.383 250.509 772.555 247.715C773.738 244.922 775.425 242.797 777.615 241.341C779.817 239.873 782.439 239.139 785.481 239.139C788.523 239.139 791.139 239.873 793.329 241.341C795.53 242.809 797.223 244.939 798.407 247.733C799.59 250.515 800.176 253.888 800.165 257.854C800.165 261.843 799.573 265.252 798.389 268.081C797.217 270.91 795.536 273.07 793.346 274.562C791.157 276.053 788.535 276.799 785.481 276.799ZM785.481 270.425C787.564 270.425 789.227 269.377 790.47 267.282C791.713 265.187 792.328 262.044 792.317 257.854C792.317 255.096 792.032 252.799 791.464 250.964C790.908 249.13 790.115 247.751 789.085 246.827C788.067 245.904 786.866 245.442 785.481 245.442C783.409 245.442 781.752 246.478 780.509 248.55C779.266 250.621 778.639 253.723 778.627 257.854C778.627 260.647 778.905 262.979 779.461 264.849C780.03 266.708 780.829 268.105 781.858 269.04C782.888 269.963 784.096 270.425 785.481 270.425ZM812.474 271.028L812.278 272.982C812.125 274.544 811.829 276.101 811.391 277.651C810.964 279.214 810.515 280.628 810.041 281.895C809.58 283.161 809.207 284.156 808.923 284.878H804.022C804.2 284.179 804.442 283.203 804.75 281.948C805.058 280.705 805.348 279.308 805.62 277.758C805.892 276.207 806.064 274.627 806.135 273.017L806.224 271.028H812.474ZM845.002 239.636V276H837.314V246.934H837.101L828.773 252.154V245.336L837.776 239.636H845.002ZM865.861 235.357V280.297H851.851V274.633H858.545V241.004H851.851V235.357H865.861Z" fill="#737370"/>
<path d="M221.323 187.727V193.409H204.899V187.727H221.323ZM208.627 181.193H216.191V206.619C216.191 207.318 216.298 207.862 216.511 208.253C216.724 208.632 217.02 208.898 217.399 209.052C217.789 209.206 218.239 209.283 218.748 209.283C219.103 209.283 219.458 209.253 219.813 209.194C220.169 209.123 220.441 209.07 220.63 209.034L221.82 214.663C221.441 214.781 220.908 214.917 220.222 215.071C219.535 215.237 218.701 215.337 217.718 215.373C215.895 215.444 214.297 215.201 212.924 214.645C211.563 214.089 210.504 213.224 209.746 212.053C208.988 210.881 208.616 209.401 208.627 207.614V181.193ZM238.386 215.533C235.581 215.533 233.166 214.964 231.142 213.828C229.129 212.68 227.579 211.058 226.49 208.963C225.401 206.856 224.856 204.364 224.856 201.488C224.856 198.683 225.401 196.22 226.49 194.102C227.579 191.983 229.112 190.331 231.088 189.148C233.077 187.964 235.409 187.372 238.084 187.372C239.883 187.372 241.558 187.662 243.109 188.242C244.671 188.81 246.033 189.669 247.193 190.817C248.365 191.965 249.276 193.409 249.927 195.149C250.578 196.877 250.904 198.902 250.904 201.222V203.299H227.875V198.612H243.784C243.784 197.522 243.547 196.558 243.073 195.717C242.6 194.877 241.943 194.22 241.103 193.746C240.274 193.261 239.309 193.018 238.208 193.018C237.06 193.018 236.042 193.285 235.154 193.817C234.278 194.338 233.592 195.043 233.095 195.93C232.598 196.806 232.343 197.783 232.331 198.86V203.317C232.331 204.666 232.58 205.832 233.077 206.815C233.586 207.797 234.302 208.555 235.225 209.087C236.149 209.62 237.244 209.886 238.51 209.886C239.351 209.886 240.12 209.768 240.818 209.531C241.517 209.295 242.115 208.939 242.612 208.466C243.109 207.992 243.488 207.412 243.748 206.726L250.744 207.188C250.389 208.868 249.661 210.336 248.56 211.591C247.471 212.834 246.062 213.804 244.334 214.503C242.618 215.189 240.635 215.533 238.386 215.533ZM263.404 199.233V215H255.84V187.727H263.049V192.539H263.368C263.972 190.953 264.984 189.698 266.404 188.775C267.825 187.84 269.547 187.372 271.571 187.372C273.465 187.372 275.117 187.786 276.525 188.615C277.934 189.444 279.029 190.627 279.81 192.166C280.591 193.693 280.982 195.516 280.982 197.635V215H273.418V198.984C273.43 197.315 273.004 196.013 272.139 195.078C271.275 194.131 270.086 193.658 268.571 193.658C267.553 193.658 266.653 193.877 265.872 194.315C265.102 194.753 264.499 195.392 264.061 196.232C263.634 197.061 263.416 198.061 263.404 199.233ZM309.635 195.504L302.71 195.93C302.592 195.339 302.337 194.806 301.947 194.332C301.556 193.847 301.041 193.462 300.402 193.178C299.775 192.882 299.023 192.734 298.147 192.734C296.975 192.734 295.987 192.983 295.182 193.48C294.377 193.965 293.975 194.616 293.975 195.433C293.975 196.084 294.235 196.635 294.756 197.085C295.277 197.534 296.17 197.895 297.437 198.168L302.373 199.162C305.024 199.706 307.001 200.582 308.303 201.79C309.605 202.997 310.256 204.583 310.256 206.548C310.256 208.336 309.73 209.904 308.676 211.254C307.635 212.603 306.202 213.656 304.379 214.414C302.568 215.16 300.479 215.533 298.112 215.533C294.501 215.533 291.625 214.781 289.482 213.278C287.352 211.763 286.103 209.703 285.736 207.099L293.176 206.708C293.4 207.809 293.945 208.649 294.809 209.229C295.673 209.798 296.78 210.082 298.129 210.082C299.455 210.082 300.52 209.827 301.325 209.318C302.142 208.797 302.556 208.129 302.568 207.312C302.556 206.625 302.266 206.063 301.698 205.625C301.13 205.175 300.254 204.832 299.07 204.595L294.347 203.654C291.684 203.121 289.701 202.198 288.399 200.884C287.109 199.57 286.464 197.895 286.464 195.859C286.464 194.107 286.937 192.598 287.884 191.332C288.843 190.065 290.187 189.089 291.915 188.402C293.655 187.715 295.691 187.372 298.023 187.372C301.467 187.372 304.178 188.1 306.155 189.556C308.144 191.012 309.304 192.995 309.635 195.504ZM323.24 210.028L323.045 211.982C322.891 213.544 322.595 215.101 322.157 216.651C321.731 218.214 321.281 219.628 320.808 220.895C320.346 222.161 319.973 223.156 319.689 223.878H314.789C314.966 223.179 315.209 222.203 315.517 220.948C315.824 219.705 316.114 218.308 316.387 216.758C316.659 215.207 316.831 213.627 316.902 212.017L316.99 210.028H323.24ZM340.019 215V187.727H347.353V192.486H347.637C348.134 190.793 348.968 189.515 350.14 188.651C351.312 187.775 352.661 187.337 354.188 187.337C354.567 187.337 354.976 187.36 355.414 187.408C355.852 187.455 356.236 187.52 356.568 187.603V194.315C356.213 194.208 355.721 194.113 355.094 194.031C354.467 193.948 353.893 193.906 353.372 193.906C352.259 193.906 351.265 194.149 350.389 194.634C349.525 195.108 348.838 195.771 348.329 196.623C347.832 197.475 347.583 198.458 347.583 199.57V215H340.019ZM367.474 215.515C365.734 215.515 364.183 215.213 362.822 214.609C361.461 213.994 360.384 213.088 359.591 211.893C358.809 210.685 358.419 209.182 358.419 207.383C358.419 205.868 358.697 204.595 359.253 203.565C359.81 202.536 360.567 201.707 361.526 201.08C362.485 200.452 363.574 199.979 364.793 199.659C366.024 199.339 367.314 199.115 368.664 198.984C370.25 198.819 371.528 198.665 372.499 198.523C373.47 198.369 374.174 198.144 374.612 197.848C375.05 197.552 375.269 197.114 375.269 196.534V196.428C375.269 195.303 374.914 194.433 374.204 193.817C373.505 193.202 372.511 192.894 371.221 192.894C369.859 192.894 368.776 193.196 367.971 193.8C367.166 194.392 366.634 195.137 366.373 196.037L359.378 195.469C359.733 193.812 360.431 192.379 361.473 191.172C362.514 189.953 363.858 189.018 365.503 188.366C367.16 187.704 369.078 187.372 371.256 187.372C372.771 187.372 374.221 187.55 375.606 187.905C377.003 188.26 378.24 188.81 379.317 189.556C380.406 190.302 381.264 191.261 381.892 192.433C382.519 193.593 382.833 194.983 382.833 196.605V215H375.66V211.218H375.446C375.008 212.07 374.423 212.822 373.689 213.473C372.955 214.112 372.073 214.615 371.043 214.982C370.013 215.337 368.824 215.515 367.474 215.515ZM369.64 210.295C370.753 210.295 371.736 210.076 372.588 209.638C373.44 209.188 374.109 208.584 374.594 207.827C375.08 207.069 375.322 206.211 375.322 205.252V202.358C375.085 202.512 374.76 202.654 374.346 202.784C373.943 202.902 373.487 203.015 372.978 203.121C372.469 203.216 371.96 203.305 371.451 203.388C370.942 203.459 370.481 203.524 370.066 203.583C369.179 203.713 368.403 203.92 367.741 204.205C367.078 204.489 366.563 204.873 366.196 205.359C365.829 205.832 365.645 206.424 365.645 207.134C365.645 208.164 366.018 208.951 366.764 209.496C367.522 210.028 368.48 210.295 369.64 210.295ZM396.265 199.233V215H388.701V187.727H395.91V192.539H396.229C396.833 190.953 397.845 189.698 399.266 188.775C400.686 187.84 402.408 187.372 404.433 187.372C406.327 187.372 407.978 187.786 409.386 188.615C410.795 189.444 411.89 190.627 412.671 192.166C413.453 193.693 413.843 195.516 413.843 197.635V215H406.279V198.984C406.291 197.315 405.865 196.013 405.001 195.078C404.137 194.131 402.947 193.658 401.432 193.658C400.414 193.658 399.514 193.877 398.733 194.315C397.964 194.753 397.36 195.392 396.922 196.232C396.496 197.061 396.277 198.061 396.265 199.233ZM432.092 225.795C429.641 225.795 427.54 225.458 425.788 224.783C424.048 224.121 422.663 223.215 421.633 222.067C420.604 220.919 419.935 219.628 419.627 218.196L426.623 217.255C426.836 217.799 427.173 218.308 427.635 218.782C428.097 219.255 428.706 219.634 429.464 219.918C430.233 220.214 431.168 220.362 432.269 220.362C433.914 220.362 435.27 219.96 436.335 219.155C437.412 218.362 437.951 217.03 437.951 215.16V210.17H437.631C437.3 210.928 436.803 211.644 436.14 212.319C435.477 212.994 434.625 213.544 433.583 213.97C432.541 214.396 431.298 214.609 429.854 214.609C427.806 214.609 425.942 214.136 424.261 213.189C422.592 212.23 421.261 210.768 420.266 208.803C419.284 206.826 418.793 204.329 418.793 201.31C418.793 198.221 419.296 195.64 420.302 193.569C421.308 191.497 422.646 189.947 424.315 188.917C425.995 187.887 427.836 187.372 429.837 187.372C431.364 187.372 432.642 187.633 433.672 188.153C434.702 188.662 435.53 189.302 436.158 190.071C436.797 190.829 437.288 191.574 437.631 192.308H437.915V187.727H445.426V215.266C445.426 217.586 444.858 219.528 443.722 221.09C442.585 222.653 441.011 223.825 438.998 224.606C436.998 225.399 434.696 225.795 432.092 225.795ZM432.251 208.928C433.471 208.928 434.5 208.626 435.341 208.022C436.193 207.406 436.844 206.531 437.294 205.394C437.756 204.246 437.986 202.873 437.986 201.275C437.986 199.677 437.762 198.292 437.312 197.12C436.862 195.936 436.211 195.019 435.359 194.368C434.506 193.717 433.471 193.391 432.251 193.391C431.008 193.391 429.961 193.729 429.109 194.403C428.256 195.066 427.611 195.99 427.173 197.173C426.735 198.357 426.516 199.724 426.516 201.275C426.516 202.849 426.735 204.21 427.173 205.359C427.623 206.495 428.268 207.377 429.109 208.004C429.961 208.62 431.008 208.928 432.251 208.928ZM463.874 215.533C461.069 215.533 458.654 214.964 456.63 213.828C454.618 212.68 453.067 211.058 451.978 208.963C450.889 206.856 450.344 204.364 450.344 201.488C450.344 198.683 450.889 196.22 451.978 194.102C453.067 191.983 454.6 190.331 456.577 189.148C458.565 187.964 460.897 187.372 463.572 187.372C465.372 187.372 467.047 187.662 468.597 188.242C470.16 188.81 471.521 189.669 472.681 190.817C473.853 191.965 474.764 193.409 475.415 195.149C476.066 196.877 476.392 198.902 476.392 201.222V203.299H453.363V198.612H469.272C469.272 197.522 469.035 196.558 468.562 195.717C468.088 194.877 467.431 194.22 466.591 193.746C465.762 193.261 464.797 193.018 463.697 193.018C462.548 193.018 461.53 193.285 460.643 193.817C459.767 194.338 459.08 195.043 458.583 195.93C458.086 196.806 457.831 197.783 457.82 198.86V203.317C457.82 204.666 458.068 205.832 458.565 206.815C459.074 207.797 459.79 208.555 460.714 209.087C461.637 209.62 462.732 209.886 463.998 209.886C464.839 209.886 465.608 209.768 466.307 209.531C467.005 209.295 467.603 208.939 468.1 208.466C468.597 207.992 468.976 207.412 469.236 206.726L476.232 207.188C475.877 208.868 475.149 210.336 474.048 211.591C472.959 212.834 471.551 213.804 469.822 214.503C468.106 215.189 466.123 215.533 463.874 215.533ZM485.749 215.462C484.577 215.462 483.571 215.047 482.731 214.219C481.902 213.378 481.488 212.372 481.488 211.2C481.488 210.04 481.902 209.046 482.731 208.217C483.571 207.389 484.577 206.974 485.749 206.974C486.886 206.974 487.88 207.389 488.732 208.217C489.584 209.046 490.011 210.04 490.011 211.2C490.011 211.982 489.809 212.698 489.407 213.349C489.016 213.988 488.501 214.503 487.862 214.893C487.223 215.272 486.519 215.462 485.749 215.462ZM485.749 196.357C484.577 196.357 483.571 195.942 482.731 195.114C481.902 194.285 481.488 193.279 481.488 192.095C481.488 190.935 481.902 189.947 482.731 189.13C483.571 188.301 484.577 187.887 485.749 187.887C486.886 187.887 487.88 188.301 488.732 189.13C489.584 189.947 490.011 190.935 490.011 192.095C490.011 192.888 489.809 193.61 489.407 194.261C489.016 194.901 488.501 195.41 487.862 195.788C487.223 196.167 486.519 196.357 485.749 196.357ZM204.255 280.297V235.357H218.264V241.004H211.57V274.633H218.264V280.297H204.255ZM238.191 239.636V276H230.502V246.934H230.289L221.962 252.154V245.336L230.964 239.636H238.191ZM261.091 276.799C258.037 276.787 255.409 276.036 253.207 274.544C251.018 273.053 249.331 270.892 248.147 268.063C246.975 265.234 246.395 261.831 246.407 257.854C246.407 253.888 246.993 250.509 248.165 247.715C249.349 244.922 251.035 242.797 253.225 241.341C255.427 239.873 258.049 239.139 261.091 239.139C264.133 239.139 266.749 239.873 268.939 241.341C271.141 242.809 272.833 244.939 274.017 247.733C275.201 250.515 275.787 253.888 275.775 257.854C275.775 261.843 275.183 265.252 273.999 268.081C272.828 270.91 271.147 273.07 268.957 274.562C266.767 276.053 264.145 276.799 261.091 276.799ZM261.091 270.425C263.174 270.425 264.837 269.377 266.08 267.282C267.323 265.187 267.939 262.044 267.927 257.854C267.927 255.096 267.643 252.799 267.075 250.964C266.518 249.13 265.725 247.751 264.695 246.827C263.677 245.904 262.476 245.442 261.091 245.442C259.02 245.442 257.362 246.478 256.119 248.55C254.877 250.621 254.249 253.723 254.237 257.854C254.237 260.647 254.515 262.979 255.072 264.849C255.64 266.708 256.439 268.105 257.469 269.04C258.499 269.963 259.706 270.425 261.091 270.425ZM288.084 271.028L287.889 272.982C287.735 274.544 287.439 276.101 287.001 277.651C286.575 279.214 286.125 280.628 285.652 281.895C285.19 283.161 284.817 284.156 284.533 284.878H279.632C279.81 284.179 280.053 283.203 280.36 281.948C280.668 280.705 280.958 279.308 281.23 277.758C281.503 276.207 281.674 274.627 281.745 273.017L281.834 271.028H288.084ZM320.612 239.636V276H312.924V246.934H312.711L304.384 252.154V245.336L313.386 239.636H320.612ZM343.513 276.799C340.459 276.787 337.831 276.036 335.629 274.544C333.439 273.053 331.753 270.892 330.569 268.063C329.397 265.234 328.817 261.831 328.829 257.854C328.829 253.888 329.415 250.509 330.587 247.715C331.77 244.922 333.457 242.797 335.647 241.341C337.849 239.873 340.471 239.139 343.513 239.139C346.555 239.139 349.171 239.873 351.361 241.341C353.563 242.809 355.255 244.939 356.439 247.733C357.623 250.515 358.209 253.888 358.197 257.854C358.197 261.843 357.605 265.252 356.421 268.081C355.249 270.91 353.569 273.07 351.379 274.562C349.189 276.053 346.567 276.799 343.513 276.799ZM343.513 270.425C345.596 270.425 347.259 269.377 348.502 267.282C349.745 265.187 350.361 262.044 350.349 257.854C350.349 255.096 350.065 252.799 349.497 250.964C348.94 249.13 348.147 247.751 347.117 246.827C346.099 245.904 344.898 245.442 343.513 245.442C341.441 245.442 339.784 246.478 338.541 248.55C337.298 250.621 336.671 253.723 336.659 257.854C336.659 260.647 336.937 262.979 337.494 264.849C338.062 266.708 338.861 268.105 339.891 269.04C340.921 269.963 342.128 270.425 343.513 270.425ZM377.937 276.799C374.883 276.787 372.255 276.036 370.053 274.544C367.863 273.053 366.177 270.892 364.993 268.063C363.821 265.234 363.241 261.831 363.253 257.854C363.253 253.888 363.839 250.509 365.011 247.715C366.194 244.922 367.881 242.797 370.071 241.341C372.273 239.873 374.895 239.139 377.937 239.139C380.979 239.139 383.595 239.873 385.785 241.341C387.986 242.809 389.679 244.939 390.863 247.733C392.047 250.515 392.632 253.888 392.621 257.854C392.621 261.843 392.029 265.252 390.845 268.081C389.673 270.91 387.992 273.07 385.802 274.562C383.613 276.053 380.991 276.799 377.937 276.799ZM377.937 270.425C380.02 270.425 381.683 269.377 382.926 267.282C384.169 265.187 384.784 262.044 384.773 257.854C384.773 255.096 384.489 252.799 383.92 250.964C383.364 249.13 382.571 247.751 381.541 246.827C380.523 245.904 379.322 245.442 377.937 245.442C375.865 245.442 374.208 246.478 372.965 248.55C371.722 250.621 371.095 253.723 371.083 257.854C371.083 260.647 371.361 262.979 371.918 264.849C372.486 266.708 373.285 268.105 374.315 269.04C375.344 269.963 376.552 270.425 377.937 270.425ZM404.93 271.028L404.734 272.982C404.581 274.544 404.285 276.101 403.847 277.651C403.421 279.214 402.971 280.628 402.497 281.895C402.036 283.161 401.663 284.156 401.379 284.878H396.478C396.656 284.179 396.898 283.203 397.206 281.948C397.514 280.705 397.804 279.308 398.076 277.758C398.348 276.207 398.52 274.627 398.591 273.017L398.68 271.028H404.93ZM437.458 239.636V276H429.77V246.934H429.557L421.229 252.154V245.336L430.232 239.636H437.458ZM460.359 276.799C457.305 276.787 454.677 276.036 452.475 274.544C450.285 273.053 448.598 270.892 447.415 268.063C446.243 265.234 445.663 261.831 445.675 257.854C445.675 253.888 446.261 250.509 447.432 247.715C448.616 244.922 450.303 242.797 452.493 241.341C454.695 239.873 457.316 239.139 460.359 239.139C463.401 239.139 466.017 239.873 468.207 241.341C470.408 242.809 472.101 244.939 473.285 247.733C474.468 250.515 475.054 253.888 475.043 257.854C475.043 261.843 474.451 265.252 473.267 268.081C472.095 270.91 470.414 273.07 468.224 274.562C466.034 276.053 463.413 276.799 460.359 276.799ZM460.359 270.425C462.442 270.425 464.105 269.377 465.348 267.282C466.591 265.187 467.206 262.044 467.195 257.854C467.195 255.096 466.91 252.799 466.342 250.964C465.786 249.13 464.993 247.751 463.963 246.827C462.945 245.904 461.744 245.442 460.359 245.442C458.287 245.442 456.63 246.478 455.387 248.55C454.144 250.621 453.517 253.723 453.505 257.854C453.505 260.647 453.783 262.979 454.339 264.849C454.908 266.708 455.707 268.105 456.736 269.04C457.766 269.963 458.974 270.425 460.359 270.425ZM492.741 235.357V280.297H478.731V274.633H485.425V241.004H478.731V235.357H492.741Z" fill="#737370"/>
<path d="M630.916 565.233V581H623.352V544.636H630.703V558.539H631.023C631.638 556.929 632.633 555.669 634.006 554.757C635.379 553.834 637.101 553.372 639.173 553.372C641.067 553.372 642.718 553.786 644.127 554.615C645.547 555.432 646.648 556.61 647.429 558.148C648.222 559.675 648.613 561.504 648.601 563.635V581H641.037V564.984C641.049 563.304 640.623 561.996 639.759 561.06C638.906 560.125 637.711 559.658 636.172 559.658C635.142 559.658 634.231 559.877 633.438 560.315C632.656 560.753 632.041 561.392 631.591 562.232C631.153 563.061 630.928 564.061 630.916 565.233ZM672.043 569.388V553.727H679.607V581H672.345V576.046H672.061C671.445 577.644 670.421 578.929 668.989 579.899C667.569 580.87 665.834 581.355 663.787 581.355C661.964 581.355 660.36 580.941 658.975 580.112C657.59 579.284 656.507 578.106 655.725 576.579C654.956 575.052 654.565 573.223 654.554 571.092V553.727H662.118V569.743C662.129 571.353 662.561 572.625 663.414 573.56C664.266 574.496 665.408 574.963 666.841 574.963C667.752 574.963 668.604 574.756 669.397 574.342C670.19 573.915 670.83 573.288 671.315 572.46C671.812 571.631 672.055 570.607 672.043 569.388ZM693.221 565.233V581H685.657V553.727H692.866V558.539H693.186C693.789 556.953 694.801 555.698 696.222 554.775C697.642 553.84 699.365 553.372 701.389 553.372C703.283 553.372 704.934 553.786 706.343 554.615C707.751 555.444 708.846 556.627 709.627 558.166C710.409 559.693 710.799 561.516 710.799 563.635V581H703.235V564.984C703.247 563.315 702.821 562.013 701.957 561.078C701.093 560.131 699.903 559.658 698.388 559.658C697.37 559.658 696.47 559.877 695.689 560.315C694.92 560.753 694.316 561.392 693.878 562.232C693.452 563.061 693.233 564.061 693.221 565.233ZM726.81 581.444C724.739 581.444 722.863 580.911 721.182 579.846C719.513 578.769 718.187 577.188 717.205 575.105C716.234 573.01 715.749 570.441 715.749 567.399C715.749 564.274 716.252 561.676 717.258 559.604C718.264 557.521 719.602 555.964 721.271 554.935C722.951 553.893 724.792 553.372 726.793 553.372C728.32 553.372 729.592 553.633 730.61 554.153C731.64 554.662 732.469 555.302 733.096 556.071C733.735 556.829 734.22 557.574 734.552 558.308H734.783V544.636H742.329V581H734.871V576.632H734.552C734.197 577.39 733.694 578.141 733.043 578.887C732.403 579.621 731.569 580.231 730.539 580.716C729.521 581.201 728.278 581.444 726.81 581.444ZM729.207 575.425C730.427 575.425 731.456 575.093 732.297 574.43C733.149 573.756 733.8 572.815 734.25 571.607C734.712 570.4 734.942 568.985 734.942 567.364C734.942 565.742 734.718 564.333 734.268 563.138C733.818 561.942 733.167 561.019 732.315 560.368C731.462 559.717 730.427 559.391 729.207 559.391C727.964 559.391 726.917 559.729 726.065 560.403C725.212 561.078 724.567 562.013 724.129 563.209C723.691 564.404 723.472 565.789 723.472 567.364C723.472 568.95 723.691 570.353 724.129 571.572C724.579 572.779 725.224 573.726 726.065 574.413C726.917 575.087 727.964 575.425 729.207 575.425ZM748.548 581V553.727H755.881V558.486H756.165C756.662 556.793 757.497 555.515 758.669 554.651C759.84 553.775 761.19 553.337 762.717 553.337C763.096 553.337 763.504 553.36 763.942 553.408C764.38 553.455 764.765 553.52 765.096 553.603V560.315C764.741 560.208 764.25 560.113 763.622 560.031C762.995 559.948 762.421 559.906 761.9 559.906C760.787 559.906 759.793 560.149 758.917 560.634C758.053 561.108 757.366 561.771 756.857 562.623C756.36 563.475 756.112 564.458 756.112 565.57V581H748.548ZM780.166 581.533C777.361 581.533 774.946 580.964 772.922 579.828C770.91 578.68 769.359 577.058 768.27 574.963C767.181 572.856 766.636 570.364 766.636 567.488C766.636 564.683 767.181 562.22 768.27 560.102C769.359 557.983 770.892 556.331 772.869 555.148C774.857 553.964 777.189 553.372 779.864 553.372C781.664 553.372 783.339 553.662 784.889 554.242C786.452 554.81 787.813 555.669 788.973 556.817C790.145 557.965 791.056 559.409 791.707 561.149C792.358 562.877 792.684 564.902 792.684 567.222V569.299H769.655V564.612H785.564C785.564 563.522 785.327 562.558 784.854 561.717C784.38 560.877 783.723 560.22 782.883 559.746C782.054 559.261 781.089 559.018 779.989 559.018C778.84 559.018 777.822 559.285 776.935 559.817C776.059 560.338 775.372 561.043 774.875 561.93C774.378 562.806 774.123 563.783 774.112 564.86V569.317C774.112 570.666 774.36 571.832 774.857 572.815C775.366 573.797 776.082 574.555 777.006 575.087C777.929 575.62 779.024 575.886 780.29 575.886C781.131 575.886 781.9 575.768 782.599 575.531C783.297 575.295 783.895 574.939 784.392 574.466C784.889 573.992 785.268 573.412 785.528 572.726L792.524 573.188C792.169 574.868 791.441 576.336 790.34 577.591C789.251 578.834 787.843 579.804 786.114 580.503C784.398 581.189 782.415 581.533 780.166 581.533ZM807.67 581.444C805.598 581.444 803.722 580.911 802.041 579.846C800.372 578.769 799.046 577.188 798.064 575.105C797.093 573.01 796.608 570.441 796.608 567.399C796.608 564.274 797.111 561.676 798.117 559.604C799.123 557.521 800.461 555.964 802.13 554.935C803.811 553.893 805.652 553.372 807.652 553.372C809.179 553.372 810.451 553.633 811.469 554.153C812.499 554.662 813.328 555.302 813.955 556.071C814.594 556.829 815.08 557.574 815.411 558.308H815.642V544.636H823.188V581H815.731V576.632H815.411C815.056 577.39 814.553 578.141 813.902 578.887C813.263 579.621 812.428 580.231 811.398 580.716C810.38 581.201 809.138 581.444 807.67 581.444ZM810.067 575.425C811.286 575.425 812.316 575.093 813.156 574.43C814.009 573.756 814.66 572.815 815.109 571.607C815.571 570.4 815.802 568.985 815.802 567.364C815.802 565.742 815.577 564.333 815.127 563.138C814.677 561.942 814.026 561.019 813.174 560.368C812.322 559.717 811.286 559.391 810.067 559.391C808.824 559.391 807.776 559.729 806.924 560.403C806.072 561.078 805.427 562.013 804.989 563.209C804.551 564.404 804.332 565.789 804.332 567.364C804.332 568.95 804.551 570.353 804.989 571.572C805.438 572.779 806.084 573.726 806.924 574.413C807.776 575.087 808.824 575.425 810.067 575.425ZM852.099 561.504L845.174 561.93C845.056 561.339 844.801 560.806 844.411 560.332C844.02 559.847 843.505 559.462 842.866 559.178C842.239 558.882 841.487 558.734 840.611 558.734C839.439 558.734 838.451 558.983 837.646 559.48C836.841 559.965 836.438 560.616 836.438 561.433C836.438 562.084 836.699 562.635 837.22 563.085C837.74 563.534 838.634 563.895 839.901 564.168L844.837 565.162C847.488 565.706 849.465 566.582 850.767 567.79C852.069 568.997 852.72 570.583 852.72 572.548C852.72 574.336 852.194 575.904 851.14 577.254C850.098 578.603 848.666 579.656 846.843 580.414C845.032 581.16 842.943 581.533 840.575 581.533C836.965 581.533 834.089 580.781 831.946 579.278C829.816 577.763 828.567 575.703 828.2 573.099L835.639 572.708C835.864 573.809 836.409 574.649 837.273 575.229C838.137 575.798 839.244 576.082 840.593 576.082C841.919 576.082 842.984 575.827 843.789 575.318C844.606 574.797 845.02 574.129 845.032 573.312C845.02 572.625 844.73 572.063 844.162 571.625C843.594 571.175 842.718 570.832 841.534 570.595L836.811 569.654C834.148 569.121 832.165 568.198 830.863 566.884C829.573 565.57 828.928 563.895 828.928 561.859C828.928 560.107 829.401 558.598 830.348 557.332C831.307 556.065 832.651 555.089 834.379 554.402C836.119 553.715 838.155 553.372 840.487 553.372C843.931 553.372 846.642 554.1 848.619 555.556C850.607 557.012 851.767 558.995 852.099 561.504ZM865.704 576.028L865.509 577.982C865.355 579.544 865.059 581.101 864.621 582.651C864.195 584.214 863.745 585.628 863.272 586.895C862.81 588.161 862.437 589.156 862.153 589.878H857.252C857.43 589.179 857.673 588.203 857.98 586.948C858.288 585.705 858.578 584.308 858.85 582.758C859.123 581.207 859.294 579.627 859.365 578.017L859.454 576.028H865.704ZM882.483 581V553.727H889.816V558.486H890.1C890.598 556.793 891.432 555.515 892.604 554.651C893.776 553.775 895.125 553.337 896.652 553.337C897.031 553.337 897.44 553.36 897.877 553.408C898.315 553.455 898.7 553.52 899.032 553.603V560.315C898.676 560.208 898.185 560.113 897.558 560.031C896.931 559.948 896.356 559.906 895.836 559.906C894.723 559.906 893.729 560.149 892.853 560.634C891.989 561.108 891.302 561.771 890.793 562.623C890.296 563.475 890.047 564.458 890.047 565.57V581H882.483ZM909.938 581.515C908.198 581.515 906.647 581.213 905.286 580.609C903.925 579.994 902.848 579.088 902.055 577.893C901.273 576.685 900.883 575.182 900.883 573.383C900.883 571.868 901.161 570.595 901.717 569.565C902.273 568.536 903.031 567.707 903.99 567.08C904.949 566.452 906.038 565.979 907.257 565.659C908.488 565.339 909.778 565.115 911.128 564.984C912.714 564.819 913.992 564.665 914.963 564.523C915.934 564.369 916.638 564.144 917.076 563.848C917.514 563.552 917.733 563.114 917.733 562.534V562.428C917.733 561.303 917.378 560.433 916.667 559.817C915.969 559.202 914.975 558.894 913.684 558.894C912.323 558.894 911.24 559.196 910.435 559.8C909.63 560.392 909.098 561.137 908.837 562.037L901.841 561.469C902.197 559.812 902.895 558.379 903.937 557.172C904.978 555.953 906.322 555.018 907.967 554.366C909.624 553.704 911.542 553.372 913.72 553.372C915.235 553.372 916.685 553.55 918.07 553.905C919.467 554.26 920.704 554.81 921.781 555.556C922.87 556.302 923.728 557.261 924.356 558.433C924.983 559.593 925.297 560.983 925.297 562.605V581H918.123V577.218H917.91C917.472 578.07 916.886 578.822 916.153 579.473C915.419 580.112 914.537 580.615 913.507 580.982C912.477 581.337 911.287 581.515 909.938 581.515ZM912.104 576.295C913.217 576.295 914.199 576.076 915.052 575.638C915.904 575.188 916.573 574.584 917.058 573.827C917.543 573.069 917.786 572.211 917.786 571.252V568.358C917.549 568.512 917.224 568.654 916.809 568.784C916.407 568.902 915.951 569.015 915.442 569.121C914.933 569.216 914.424 569.305 913.915 569.388C913.406 569.459 912.945 569.524 912.53 569.583C911.643 569.713 910.867 569.92 910.204 570.205C909.541 570.489 909.027 570.873 908.66 571.359C908.293 571.832 908.109 572.424 908.109 573.134C908.109 574.164 908.482 574.951 909.228 575.496C909.985 576.028 910.944 576.295 912.104 576.295ZM938.729 565.233V581H931.165V553.727H938.374V558.539H938.693C939.297 556.953 940.309 555.698 941.73 554.775C943.15 553.84 944.872 553.372 946.896 553.372C948.79 553.372 950.442 553.786 951.85 554.615C953.259 555.444 954.354 556.627 955.135 558.166C955.916 559.693 956.307 561.516 956.307 563.635V581H948.743V564.984C948.755 563.315 948.329 562.013 947.465 561.078C946.601 560.131 945.411 559.658 943.896 559.658C942.878 559.658 941.978 559.877 941.197 560.315C940.427 560.753 939.824 561.392 939.386 562.232C938.96 563.061 938.741 564.061 938.729 565.233ZM974.555 591.795C972.105 591.795 970.004 591.458 968.252 590.783C966.512 590.121 965.127 589.215 964.097 588.067C963.067 586.919 962.399 585.628 962.091 584.196L969.087 583.255C969.3 583.799 969.637 584.308 970.099 584.782C970.56 585.255 971.17 585.634 971.928 585.918C972.697 586.214 973.632 586.362 974.733 586.362C976.378 586.362 977.734 585.96 978.799 585.155C979.876 584.362 980.415 583.03 980.415 581.16V576.17H980.095C979.764 576.928 979.267 577.644 978.604 578.319C977.941 578.994 977.089 579.544 976.047 579.97C975.005 580.396 973.762 580.609 972.318 580.609C970.27 580.609 968.406 580.136 966.725 579.189C965.056 578.23 963.724 576.768 962.73 574.803C961.748 572.826 961.256 570.329 961.256 567.31C961.256 564.221 961.759 561.64 962.766 559.569C963.772 557.497 965.109 555.947 966.778 554.917C968.459 553.887 970.3 553.372 972.3 553.372C973.827 553.372 975.106 553.633 976.136 554.153C977.165 554.662 977.994 555.302 978.621 556.071C979.261 556.829 979.752 557.574 980.095 558.308H980.379V553.727H987.89V581.266C987.89 583.586 987.322 585.528 986.185 587.09C985.049 588.653 983.475 589.825 981.462 590.606C979.462 591.399 977.16 591.795 974.555 591.795ZM974.715 574.928C975.934 574.928 976.964 574.626 977.805 574.022C978.657 573.406 979.308 572.531 979.758 571.394C980.219 570.246 980.45 568.873 980.45 567.275C980.45 565.677 980.225 564.292 979.776 563.12C979.326 561.936 978.675 561.019 977.822 560.368C976.97 559.717 975.934 559.391 974.715 559.391C973.472 559.391 972.425 559.729 971.572 560.403C970.72 561.066 970.075 561.99 969.637 563.173C969.199 564.357 968.98 565.724 968.98 567.275C968.98 568.849 969.199 570.21 969.637 571.359C970.087 572.495 970.732 573.377 971.572 574.004C972.425 574.62 973.472 574.928 974.715 574.928ZM1006.34 581.533C1003.53 581.533 1001.12 580.964 999.094 579.828C997.081 578.68 995.531 577.058 994.442 574.963C993.353 572.856 992.808 570.364 992.808 567.488C992.808 564.683 993.353 562.22 994.442 560.102C995.531 557.983 997.064 556.331 999.04 555.148C1001.03 553.964 1003.36 553.372 1006.04 553.372C1007.84 553.372 1009.51 553.662 1011.06 554.242C1012.62 554.81 1013.98 555.669 1015.14 556.817C1016.32 557.965 1017.23 559.409 1017.88 561.149C1018.53 562.877 1018.86 564.902 1018.86 567.222V569.299H995.827V564.612H1011.74C1011.74 563.522 1011.5 562.558 1011.03 561.717C1010.55 560.877 1009.9 560.22 1009.05 559.746C1008.23 559.261 1007.26 559.018 1006.16 559.018C1005.01 559.018 1003.99 559.285 1003.11 559.817C1002.23 560.338 1001.54 561.043 1001.05 561.93C1000.55 562.806 1000.3 563.783 1000.28 564.86V569.317C1000.28 570.666 1000.53 571.832 1001.03 572.815C1001.54 573.797 1002.25 574.555 1003.18 575.087C1004.1 575.62 1005.2 575.886 1006.46 575.886C1007.3 575.886 1008.07 575.768 1008.77 575.531C1009.47 575.295 1010.07 574.939 1010.56 574.466C1011.06 573.992 1011.44 573.412 1011.7 572.726L1018.7 573.188C1018.34 574.868 1017.61 576.336 1016.51 577.591C1015.42 578.834 1014.01 579.804 1012.29 580.503C1010.57 581.189 1008.59 581.533 1006.34 581.533ZM1028.21 581.462C1027.04 581.462 1026.04 581.047 1025.19 580.219C1024.37 579.378 1023.95 578.372 1023.95 577.2C1023.95 576.04 1024.37 575.046 1025.19 574.217C1026.04 573.389 1027.04 572.974 1028.21 572.974C1029.35 572.974 1030.34 573.389 1031.2 574.217C1032.05 575.046 1032.47 576.04 1032.47 577.2C1032.47 577.982 1032.27 578.698 1031.87 579.349C1031.48 579.988 1030.97 580.503 1030.33 580.893C1029.69 581.272 1028.98 581.462 1028.21 581.462ZM1028.21 562.357C1027.04 562.357 1026.04 561.942 1025.19 561.114C1024.37 560.285 1023.95 559.279 1023.95 558.095C1023.95 556.935 1024.37 555.947 1025.19 555.13C1026.04 554.301 1027.04 553.887 1028.21 553.887C1029.35 553.887 1030.34 554.301 1031.2 555.13C1032.05 555.947 1032.47 556.935 1032.47 558.095C1032.47 558.888 1032.27 559.61 1031.87 560.261C1031.48 560.901 1030.97 561.41 1030.33 561.788C1029.69 562.167 1028.98 562.357 1028.21 562.357ZM632.119 646.297V601.357H646.129V607.004H639.435V640.633H646.129V646.297H632.119ZM666.055 605.636V642H658.367V612.934H658.154L649.826 618.154V611.336L658.828 605.636H666.055ZM688.955 642.799C685.901 642.787 683.273 642.036 681.072 640.544C678.882 639.053 677.195 636.892 676.011 634.063C674.839 631.234 674.259 627.831 674.271 623.854C674.271 619.888 674.857 616.509 676.029 613.715C677.213 610.922 678.9 608.797 681.089 607.341C683.291 605.873 685.913 605.139 688.955 605.139C691.997 605.139 694.613 605.873 696.803 607.341C699.005 608.809 700.698 610.939 701.881 613.733C703.065 616.515 703.651 619.888 703.639 623.854C703.639 627.843 703.047 631.252 701.864 634.081C700.692 636.91 699.011 639.07 696.821 640.562C694.631 642.053 692.009 642.799 688.955 642.799ZM688.955 636.425C691.039 636.425 692.702 635.377 693.945 633.282C695.188 631.187 695.803 628.044 695.791 623.854C695.791 621.096 695.507 618.799 694.939 616.964C694.383 615.13 693.589 613.751 692.56 612.827C691.542 611.904 690.34 611.442 688.955 611.442C686.884 611.442 685.227 612.478 683.984 614.55C682.741 616.621 682.113 619.723 682.102 623.854C682.102 626.647 682.38 628.979 682.936 630.849C683.504 632.708 684.303 634.105 685.333 635.04C686.363 635.963 687.57 636.425 688.955 636.425ZM723.379 642.799C720.325 642.787 717.697 642.036 715.496 640.544C713.306 639.053 711.619 636.892 710.435 634.063C709.263 631.234 708.683 627.831 708.695 623.854C708.695 619.888 709.281 616.509 710.453 613.715C711.637 610.922 713.323 608.797 715.513 607.341C717.715 605.873 720.337 605.139 723.379 605.139C726.421 605.139 729.037 605.873 731.227 607.341C733.429 608.809 735.122 610.939 736.305 613.733C737.489 616.515 738.075 619.888 738.063 623.854C738.063 627.843 737.471 631.252 736.287 634.081C735.116 636.91 733.435 639.07 731.245 640.562C729.055 642.053 726.433 642.799 723.379 642.799ZM723.379 636.425C725.462 636.425 727.126 635.377 728.368 633.282C729.611 631.187 730.227 628.044 730.215 623.854C730.215 621.096 729.931 618.799 729.363 616.964C728.806 615.13 728.013 613.751 726.983 612.827C725.965 611.904 724.764 611.442 723.379 611.442C721.308 611.442 719.65 612.478 718.407 614.55C717.165 616.621 716.537 619.723 716.525 623.854C716.525 626.647 716.804 628.979 717.36 630.849C717.928 632.708 718.727 634.105 719.757 635.04C720.787 635.963 721.994 636.425 723.379 636.425ZM750.372 637.028L750.177 638.982C750.023 640.544 749.727 642.101 749.289 643.651C748.863 645.214 748.413 646.628 747.94 647.895C747.478 649.161 747.105 650.156 746.821 650.878H741.92C742.098 650.179 742.341 649.203 742.648 647.948C742.956 646.705 743.246 645.308 743.518 643.758C743.791 642.207 743.962 640.627 744.033 639.017L744.122 637.028H750.372ZM782.901 605.636V642H775.212V612.934H774.999L766.672 618.154V611.336L775.674 605.636H782.901ZM805.801 642.799C802.747 642.787 800.119 642.036 797.917 640.544C795.728 639.053 794.041 636.892 792.857 634.063C791.685 631.234 791.105 627.831 791.117 623.854C791.117 619.888 791.703 616.509 792.875 613.715C794.059 610.922 795.745 608.797 797.935 607.341C800.137 605.873 802.759 605.139 805.801 605.139C808.843 605.139 811.459 605.873 813.649 607.341C815.851 608.809 817.543 610.939 818.727 613.733C819.911 616.515 820.497 619.888 820.485 623.854C820.485 627.843 819.893 631.252 818.709 634.081C817.537 636.91 815.857 639.07 813.667 640.562C811.477 642.053 808.855 642.799 805.801 642.799ZM805.801 636.425C807.884 636.425 809.547 635.377 810.79 633.282C812.033 631.187 812.649 628.044 812.637 623.854C812.637 621.096 812.353 618.799 811.785 616.964C811.228 615.13 810.435 613.751 809.405 612.827C808.387 611.904 807.186 611.442 805.801 611.442C803.729 611.442 802.072 612.478 800.829 614.55C799.586 616.621 798.959 619.723 798.947 623.854C798.947 626.647 799.225 628.979 799.782 630.849C800.35 632.708 801.149 634.105 802.179 635.04C803.209 635.963 804.416 636.425 805.801 636.425ZM840.225 642.799C837.171 642.787 834.543 642.036 832.341 640.544C830.151 639.053 828.465 636.892 827.281 634.063C826.109 631.234 825.529 627.831 825.541 623.854C825.541 619.888 826.127 616.509 827.299 613.715C828.482 610.922 830.169 608.797 832.359 607.341C834.561 605.873 837.183 605.139 840.225 605.139C843.267 605.139 845.883 605.873 848.073 607.341C850.275 608.809 851.967 610.939 853.151 613.733C854.335 616.515 854.921 619.888 854.909 623.854C854.909 627.843 854.317 631.252 853.133 634.081C851.961 636.91 850.28 639.07 848.091 640.562C845.901 642.053 843.279 642.799 840.225 642.799ZM840.225 636.425C842.308 636.425 843.971 635.377 845.214 633.282C846.457 631.187 847.073 628.044 847.061 623.854C847.061 621.096 846.777 618.799 846.208 616.964C845.652 615.13 844.859 613.751 843.829 612.827C842.811 611.904 841.61 611.442 840.225 611.442C838.153 611.442 836.496 612.478 835.253 614.55C834.01 616.621 833.383 619.723 833.371 623.854C833.371 626.647 833.649 628.979 834.206 630.849C834.774 632.708 835.573 634.105 836.603 635.04C837.632 635.963 838.84 636.425 840.225 636.425ZM874.649 642.799C871.595 642.787 868.967 642.036 866.765 640.544C864.575 639.053 862.888 636.892 861.705 634.063C860.533 631.234 859.953 627.831 859.965 623.854C859.965 619.888 860.551 616.509 861.722 613.715C862.906 610.922 864.593 608.797 866.783 607.341C868.985 605.873 871.606 605.139 874.649 605.139C877.691 605.139 880.307 605.873 882.497 607.341C884.698 608.809 886.391 610.939 887.575 613.733C888.758 616.515 889.344 619.888 889.333 623.854C889.333 627.843 888.741 631.252 887.557 634.081C886.385 636.91 884.704 639.07 882.514 640.562C880.325 642.053 877.703 642.799 874.649 642.799ZM874.649 636.425C876.732 636.425 878.395 635.377 879.638 633.282C880.881 631.187 881.496 628.044 881.485 623.854C881.485 621.096 881.2 618.799 880.632 616.964C880.076 615.13 879.283 613.751 878.253 612.827C877.235 611.904 876.034 611.442 874.649 611.442C872.577 611.442 870.92 612.478 869.677 614.55C868.434 616.621 867.807 619.723 867.795 623.854C867.795 626.647 868.073 628.979 868.629 630.849C869.198 632.708 869.997 634.105 871.026 635.04C872.056 635.963 873.264 636.425 874.649 636.425ZM901.642 637.028L901.446 638.982C901.292 640.544 900.997 642.101 900.559 643.651C900.132 645.214 899.683 646.628 899.209 647.895C898.748 649.161 898.375 650.156 898.091 650.878H893.19C893.368 650.179 893.61 649.203 893.918 647.948C894.226 646.705 894.516 645.308 894.788 643.758C895.06 642.207 895.232 640.627 895.303 639.017L895.392 637.028H901.642ZM934.17 605.636V642H926.482V612.934H926.269L917.941 618.154V611.336L926.944 605.636H934.17ZM957.07 642.799C954.017 642.787 951.389 642.036 949.187 640.544C946.997 639.053 945.31 636.892 944.127 634.063C942.955 631.234 942.375 627.831 942.387 623.854C942.387 619.888 942.972 616.509 944.144 613.715C945.328 610.922 947.015 608.797 949.205 607.341C951.406 605.873 954.028 605.139 957.07 605.139C960.113 605.139 962.729 605.873 964.919 607.341C967.12 608.809 968.813 610.939 969.997 613.733C971.18 616.515 971.766 619.888 971.754 623.854C971.754 627.843 971.163 631.252 969.979 634.081C968.807 636.91 967.126 639.07 964.936 640.562C962.746 642.053 960.124 642.799 957.07 642.799ZM957.07 636.425C959.154 636.425 960.817 635.377 962.06 633.282C963.303 631.187 963.918 628.044 963.906 623.854C963.906 621.096 963.622 618.799 963.054 616.964C962.498 615.13 961.705 613.751 960.675 612.827C959.657 611.904 958.455 611.442 957.07 611.442C954.999 611.442 953.342 612.478 952.099 614.55C950.856 616.621 950.229 619.723 950.217 623.854C950.217 626.647 950.495 628.979 951.051 630.849C951.619 632.708 952.419 634.105 953.448 635.04C954.478 635.963 955.686 636.425 957.07 636.425ZM991.494 642.799C988.44 642.787 985.813 642.036 983.611 640.544C981.421 639.053 979.734 636.892 978.55 634.063C977.379 631.234 976.799 627.831 976.81 623.854C976.81 619.888 977.396 616.509 978.568 613.715C979.752 610.922 981.439 608.797 983.629 607.341C985.83 605.873 988.452 605.139 991.494 605.139C994.536 605.139 997.152 605.873 999.342 607.341C1001.54 608.809 1003.24 610.939 1004.42 613.733C1005.6 616.515 1006.19 619.888 1006.18 623.854C1006.18 627.843 1005.59 631.252 1004.4 634.081C1003.23 636.91 1001.55 639.07 999.36 640.562C997.17 642.053 994.548 642.799 991.494 642.799ZM991.494 636.425C993.578 636.425 995.241 635.377 996.484 633.282C997.727 631.187 998.342 628.044 998.33 623.854C998.33 621.096 998.046 618.799 997.478 616.964C996.922 615.13 996.129 613.751 995.099 612.827C994.081 611.904 992.879 611.442 991.494 611.442C989.423 611.442 987.766 612.478 986.523 614.55C985.28 616.621 984.652 619.723 984.641 623.854C984.641 626.647 984.919 628.979 985.475 630.849C986.043 632.708 986.842 634.105 987.872 635.04C988.902 635.963 990.109 636.425 991.494 636.425ZM1023.88 601.357V646.297H1009.87V640.633H1016.56V607.004H1009.87V601.357H1023.88Z" fill="#737370"/>
<path d="M49.4067 553.727V559.409H32.9827V553.727H49.4067ZM36.7114 547.193H44.2753V572.619C44.2753 573.318 44.3818 573.862 44.5949 574.253C44.808 574.632 45.1039 574.898 45.4827 575.052C45.8733 575.206 46.3231 575.283 46.8321 575.283C47.1872 575.283 47.5423 575.253 47.8975 575.194C48.2526 575.123 48.5248 575.07 48.7142 575.034L49.9039 580.663C49.5251 580.781 48.9924 580.917 48.3058 581.071C47.6193 581.237 46.7848 581.337 45.8023 581.373C43.9794 581.444 42.3814 581.201 41.0083 580.645C39.647 580.089 38.5876 579.224 37.83 578.053C37.0724 576.881 36.6995 575.401 36.7114 573.614V547.193ZM62.4838 565.233V581H54.9198V544.636H62.2707V558.539H62.5903C63.2058 556.929 64.2001 555.669 65.5732 554.757C66.9463 553.834 68.6686 553.372 70.7401 553.372C72.6341 553.372 74.2854 553.786 75.694 554.615C77.1144 555.432 78.2153 556.61 78.9965 558.148C79.7896 559.675 80.1803 561.504 80.1684 563.635V581H72.6045V564.984C72.6163 563.304 72.1902 561.996 71.3261 561.06C70.4738 560.125 69.2783 559.658 67.7394 559.658C66.7096 559.658 65.7981 559.877 65.0051 560.315C64.2238 560.753 63.6083 561.392 63.1585 562.232C62.7205 563.061 62.4956 564.061 62.4838 565.233ZM98.4434 581.533C95.6854 581.533 93.3002 580.947 91.2879 579.775C89.2874 578.591 87.7427 576.946 86.6537 574.839C85.5647 572.72 85.0202 570.264 85.0202 567.47C85.0202 564.653 85.5647 562.191 86.6537 560.084C87.7427 557.965 89.2874 556.32 91.2879 555.148C93.3002 553.964 95.6854 553.372 98.4434 553.372C101.201 553.372 103.581 553.964 105.581 555.148C107.594 556.32 109.144 557.965 110.233 560.084C111.322 562.191 111.867 564.653 111.867 567.47C111.867 570.264 111.322 572.72 110.233 574.839C109.144 576.946 107.594 578.591 105.581 579.775C103.581 580.947 101.201 581.533 98.4434 581.533ZM98.479 575.673C99.7337 575.673 100.781 575.318 101.622 574.608C102.462 573.886 103.095 572.903 103.522 571.661C103.96 570.418 104.179 569.003 104.179 567.417C104.179 565.831 103.96 564.416 103.522 563.173C103.095 561.93 102.462 560.948 101.622 560.226C100.781 559.504 99.7337 559.143 98.479 559.143C97.2124 559.143 96.147 559.504 95.2829 560.226C94.4307 560.948 93.7855 561.93 93.3476 563.173C92.9214 564.416 92.7084 565.831 92.7084 567.417C92.7084 569.003 92.9214 570.418 93.3476 571.661C93.7855 572.903 94.4307 573.886 95.2829 574.608C96.147 575.318 97.2124 575.673 98.479 575.673ZM134.274 569.388V553.727H141.838V581H134.576V576.046H134.292C133.677 577.644 132.653 578.929 131.22 579.899C129.8 580.87 128.066 581.355 126.018 581.355C124.195 581.355 122.591 580.941 121.206 580.112C119.821 579.284 118.738 578.106 117.957 576.579C117.188 575.052 116.797 573.223 116.785 571.092V553.727H124.349V569.743C124.361 571.353 124.793 572.625 125.645 573.56C126.497 574.496 127.64 574.963 129.072 574.963C129.983 574.963 130.836 574.756 131.629 574.342C132.422 573.915 133.061 573.288 133.546 572.46C134.044 571.631 134.286 570.607 134.274 569.388ZM170.58 561.504L163.656 561.93C163.537 561.339 163.283 560.806 162.892 560.332C162.502 559.847 161.987 559.462 161.347 559.178C160.72 558.882 159.968 558.734 159.092 558.734C157.921 558.734 156.932 558.983 156.127 559.48C155.322 559.965 154.92 560.616 154.92 561.433C154.92 562.084 155.18 562.635 155.701 563.085C156.222 563.534 157.116 563.895 158.382 564.168L163.318 565.162C165.97 565.706 167.947 566.582 169.249 567.79C170.551 568.997 171.202 570.583 171.202 572.548C171.202 574.336 170.675 575.904 169.622 577.254C168.58 578.603 167.148 579.656 165.325 580.414C163.514 581.16 161.424 581.533 159.057 581.533C155.447 581.533 152.57 580.781 150.428 579.278C148.297 577.763 147.048 575.703 146.681 573.099L154.121 572.708C154.346 573.809 154.89 574.649 155.754 575.229C156.618 575.798 157.725 576.082 159.075 576.082C160.4 576.082 161.466 575.827 162.271 575.318C163.087 574.797 163.502 574.129 163.514 573.312C163.502 572.625 163.212 572.063 162.644 571.625C162.075 571.175 161.199 570.832 160.016 570.595L155.293 569.654C152.629 569.121 150.647 568.198 149.345 566.884C148.054 565.57 147.409 563.895 147.409 561.859C147.409 560.107 147.883 558.598 148.83 557.332C149.788 556.065 151.132 555.089 152.86 554.402C154.6 553.715 156.636 553.372 158.968 553.372C162.413 553.372 165.123 554.1 167.1 555.556C169.089 557.012 170.249 558.995 170.58 561.504ZM183.742 581.515C182.002 581.515 180.451 581.213 179.09 580.609C177.728 579.994 176.651 579.088 175.858 577.893C175.077 576.685 174.686 575.182 174.686 573.383C174.686 571.868 174.965 570.595 175.521 569.565C176.077 568.536 176.835 567.707 177.794 567.08C178.752 566.452 179.841 565.979 181.061 565.659C182.292 565.339 183.582 565.115 184.931 564.984C186.518 564.819 187.796 564.665 188.767 564.523C189.737 564.369 190.442 564.144 190.88 563.848C191.318 563.552 191.536 563.114 191.536 562.534V562.428C191.536 561.303 191.181 560.433 190.471 559.817C189.773 559.202 188.778 558.894 187.488 558.894C186.127 558.894 185.044 559.196 184.239 559.8C183.434 560.392 182.901 561.137 182.641 562.037L175.645 561.469C176 559.812 176.699 558.379 177.74 557.172C178.782 555.953 180.126 555.018 181.771 554.366C183.428 553.704 185.346 553.372 187.524 553.372C189.039 553.372 190.489 553.55 191.874 553.905C193.271 554.26 194.508 554.81 195.585 555.556C196.674 556.302 197.532 557.261 198.159 558.433C198.787 559.593 199.1 560.983 199.1 562.605V581H191.927V577.218H191.714C191.276 578.07 190.69 578.822 189.956 579.473C189.222 580.112 188.34 580.615 187.311 580.982C186.281 581.337 185.091 581.515 183.742 581.515ZM185.908 576.295C187.021 576.295 188.003 576.076 188.855 575.638C189.708 575.188 190.376 574.584 190.862 573.827C191.347 573.069 191.59 572.211 191.59 571.252V568.358C191.353 568.512 191.027 568.654 190.613 568.784C190.211 568.902 189.755 569.015 189.246 569.121C188.737 569.216 188.228 569.305 187.719 569.388C187.21 569.459 186.748 569.524 186.334 569.583C185.446 569.713 184.671 569.92 184.008 570.205C183.345 570.489 182.83 570.873 182.463 571.359C182.096 571.832 181.913 572.424 181.913 573.134C181.913 574.164 182.286 574.951 183.032 575.496C183.789 576.028 184.748 576.295 185.908 576.295ZM212.533 565.233V581H204.969V553.727H212.177V558.539H212.497C213.101 556.953 214.113 555.698 215.533 554.775C216.954 553.84 218.676 553.372 220.7 553.372C222.594 553.372 224.245 553.786 225.654 554.615C227.063 555.444 228.158 556.627 228.939 558.166C229.72 559.693 230.111 561.516 230.111 563.635V581H222.547V564.984C222.559 563.315 222.132 562.013 221.268 561.078C220.404 560.131 219.215 559.658 217.699 559.658C216.681 559.658 215.782 559.877 215.001 560.315C214.231 560.753 213.628 561.392 213.19 562.232C212.763 563.061 212.544 564.061 212.533 565.233ZM246.122 581.444C244.05 581.444 242.174 580.911 240.493 579.846C238.824 578.769 237.499 577.188 236.516 575.105C235.545 573.01 235.06 570.441 235.06 567.399C235.06 564.274 235.563 561.676 236.569 559.604C237.575 557.521 238.913 555.964 240.582 554.935C242.263 553.893 244.104 553.372 246.104 553.372C247.631 553.372 248.904 553.633 249.922 554.153C250.951 554.662 251.78 555.302 252.407 556.071C253.047 556.829 253.532 557.574 253.863 558.308H254.094V544.636H261.64V581H254.183V576.632H253.863C253.508 577.39 253.005 578.141 252.354 578.887C251.715 579.621 250.88 580.231 249.851 580.716C248.833 581.201 247.59 581.444 246.122 581.444ZM248.519 575.425C249.738 575.425 250.768 575.093 251.608 574.43C252.461 573.756 253.112 572.815 253.562 571.607C254.023 570.4 254.254 568.985 254.254 567.364C254.254 565.742 254.029 564.333 253.579 563.138C253.129 561.942 252.478 561.019 251.626 560.368C250.774 559.717 249.738 559.391 248.519 559.391C247.276 559.391 246.228 559.729 245.376 560.403C244.524 561.078 243.879 562.013 243.441 563.209C243.003 564.404 242.784 565.789 242.784 567.364C242.784 568.95 243.003 570.353 243.441 571.572C243.891 572.779 244.536 573.726 245.376 574.413C246.228 575.087 247.276 575.425 248.519 575.425ZM290.551 561.504L283.626 561.93C283.508 561.339 283.253 560.806 282.863 560.332C282.472 559.847 281.957 559.462 281.318 559.178C280.691 558.882 279.939 558.734 279.063 558.734C277.891 558.734 276.903 558.983 276.098 559.48C275.293 559.965 274.891 560.616 274.891 561.433C274.891 562.084 275.151 562.635 275.672 563.085C276.193 563.534 277.086 563.895 278.353 564.168L283.289 565.162C285.94 565.706 287.917 566.582 289.219 567.79C290.521 568.997 291.172 570.583 291.172 572.548C291.172 574.336 290.646 575.904 289.592 577.254C288.551 578.603 287.118 579.656 285.295 580.414C283.484 581.16 281.395 581.533 279.028 581.533C275.417 581.533 272.541 580.781 270.398 579.278C268.268 577.763 267.019 575.703 266.652 573.099L274.092 572.708C274.316 573.809 274.861 574.649 275.725 575.229C276.589 575.798 277.696 576.082 279.045 576.082C280.371 576.082 281.436 575.827 282.241 575.318C283.058 574.797 283.472 574.129 283.484 573.312C283.472 572.625 283.182 572.063 282.614 571.625C282.046 571.175 281.17 570.832 279.986 570.595L275.263 569.654C272.6 569.121 270.617 568.198 269.315 566.884C268.025 565.57 267.38 563.895 267.38 561.859C267.38 560.107 267.853 558.598 268.8 557.332C269.759 556.065 271.103 555.089 272.831 554.402C274.571 553.715 276.607 553.372 278.939 553.372C282.383 553.372 285.094 554.1 287.071 555.556C289.06 557.012 290.22 558.995 290.551 561.504ZM304.156 576.028L303.961 577.982C303.807 579.544 303.511 581.101 303.073 582.651C302.647 584.214 302.197 585.628 301.724 586.895C301.262 588.161 300.889 589.156 300.605 589.878H295.705C295.882 589.179 296.125 588.203 296.433 586.948C296.74 585.705 297.03 584.308 297.303 582.758C297.575 581.207 297.747 579.627 297.818 578.017L297.906 576.028H304.156ZM320.935 581V553.727H328.269V558.486H328.553C329.05 556.793 329.884 555.515 331.056 554.651C332.228 553.775 333.578 553.337 335.104 553.337C335.483 553.337 335.892 553.36 336.33 553.408C336.768 553.455 337.152 553.52 337.484 553.603V560.315C337.129 560.208 336.637 560.113 336.01 560.031C335.383 559.948 334.809 559.906 334.288 559.906C333.175 559.906 332.181 560.149 331.305 560.634C330.441 561.108 329.754 561.771 329.245 562.623C328.748 563.475 328.499 564.458 328.499 565.57V581H320.935ZM348.39 581.515C346.65 581.515 345.099 581.213 343.738 580.609C342.377 579.994 341.3 579.088 340.507 577.893C339.725 576.685 339.335 575.182 339.335 573.383C339.335 571.868 339.613 570.595 340.169 569.565C340.726 568.536 341.483 567.707 342.442 567.08C343.401 566.452 344.49 565.979 345.709 565.659C346.94 565.339 348.23 565.115 349.58 564.984C351.166 564.819 352.444 564.665 353.415 564.523C354.386 564.369 355.09 564.144 355.528 563.848C355.966 563.552 356.185 563.114 356.185 562.534V562.428C356.185 561.303 355.83 560.433 355.12 559.817C354.421 559.202 353.427 558.894 352.137 558.894C350.775 558.894 349.692 559.196 348.887 559.8C348.082 560.392 347.55 561.137 347.289 562.037L340.294 561.469C340.649 559.812 341.347 558.379 342.389 557.172C343.43 555.953 344.774 555.018 346.419 554.366C348.076 553.704 349.994 553.372 352.172 553.372C353.687 553.372 355.137 553.55 356.522 553.905C357.919 554.26 359.156 554.81 360.233 555.556C361.322 556.302 362.18 557.261 362.808 558.433C363.435 559.593 363.749 560.983 363.749 562.605V581H356.576V577.218H356.362C355.925 578.07 355.339 578.822 354.605 579.473C353.871 580.112 352.989 580.615 351.959 580.982C350.929 581.337 349.74 581.515 348.39 581.515ZM350.556 576.295C351.669 576.295 352.652 576.076 353.504 575.638C354.356 575.188 355.025 574.584 355.51 573.827C355.996 573.069 356.238 572.211 356.238 571.252V568.358C356.001 568.512 355.676 568.654 355.262 568.784C354.859 568.902 354.403 569.015 353.894 569.121C353.385 569.216 352.876 569.305 352.367 569.388C351.858 569.459 351.397 569.524 350.983 569.583C350.095 569.713 349.319 569.92 348.657 570.205C347.994 570.489 347.479 570.873 347.112 571.359C346.745 571.832 346.561 572.424 346.561 573.134C346.561 574.164 346.934 574.951 347.68 575.496C348.438 576.028 349.396 576.295 350.556 576.295ZM377.181 565.233V581H369.617V553.727H376.826V558.539H377.146C377.749 556.953 378.761 555.698 380.182 554.775C381.602 553.84 383.324 553.372 385.349 553.372C387.243 553.372 388.894 553.786 390.302 554.615C391.711 555.444 392.806 556.627 393.587 558.166C394.369 559.693 394.759 561.516 394.759 563.635V581H387.195V564.984C387.207 563.315 386.781 562.013 385.917 561.078C385.053 560.131 383.863 559.658 382.348 559.658C381.33 559.658 380.43 559.877 379.649 560.315C378.88 560.753 378.276 561.392 377.838 562.232C377.412 563.061 377.193 564.061 377.181 565.233ZM413.008 591.795C410.557 591.795 408.456 591.458 406.704 590.783C404.964 590.121 403.579 589.215 402.549 588.067C401.52 586.919 400.851 585.628 400.543 584.196L407.539 583.255C407.752 583.799 408.089 584.308 408.551 584.782C409.013 585.255 409.622 585.634 410.38 585.918C411.149 586.214 412.084 586.362 413.185 586.362C414.83 586.362 416.186 585.96 417.251 585.155C418.328 584.362 418.867 583.03 418.867 581.16V576.17H418.547C418.216 576.928 417.719 577.644 417.056 578.319C416.393 578.994 415.541 579.544 414.499 579.97C413.457 580.396 412.214 580.609 410.77 580.609C408.723 580.609 406.858 580.136 405.177 579.189C403.508 578.23 402.177 576.768 401.182 574.803C400.2 572.826 399.709 570.329 399.709 567.31C399.709 564.221 400.212 561.64 401.218 559.569C402.224 557.497 403.562 555.947 405.231 554.917C406.911 553.887 408.752 553.372 410.753 553.372C412.28 553.372 413.558 553.633 414.588 554.153C415.618 554.662 416.446 555.302 417.074 556.071C417.713 556.829 418.204 557.574 418.547 558.308H418.831V553.727H426.342V581.266C426.342 583.586 425.774 585.528 424.638 587.09C423.501 588.653 421.927 589.825 419.915 590.606C417.914 591.399 415.612 591.795 413.008 591.795ZM413.167 574.928C414.387 574.928 415.416 574.626 416.257 574.022C417.109 573.406 417.76 572.531 418.21 571.394C418.672 570.246 418.902 568.873 418.902 567.275C418.902 565.677 418.678 564.292 418.228 563.12C417.778 561.936 417.127 561.019 416.275 560.368C415.422 559.717 414.387 559.391 413.167 559.391C411.924 559.391 410.877 559.729 410.025 560.403C409.172 561.066 408.527 561.99 408.089 563.173C407.651 564.357 407.432 565.724 407.432 567.275C407.432 568.849 407.651 570.21 408.089 571.359C408.539 572.495 409.184 573.377 410.025 574.004C410.877 574.62 411.924 574.928 413.167 574.928ZM444.79 581.533C441.985 581.533 439.57 580.964 437.546 579.828C435.534 578.68 433.983 577.058 432.894 574.963C431.805 572.856 431.26 570.364 431.26 567.488C431.26 564.683 431.805 562.22 432.894 560.102C433.983 557.983 435.516 556.331 437.493 555.148C439.481 553.964 441.813 553.372 444.488 553.372C446.288 553.372 447.963 553.662 449.513 554.242C451.076 554.81 452.437 555.669 453.597 556.817C454.769 557.965 455.68 559.409 456.331 561.149C456.982 562.877 457.308 564.902 457.308 567.222V569.299H434.279V564.612H450.188C450.188 563.522 449.951 562.558 449.478 561.717C449.004 560.877 448.347 560.22 447.507 559.746C446.678 559.261 445.714 559.018 444.613 559.018C443.464 559.018 442.446 559.285 441.559 559.817C440.683 560.338 439.996 561.043 439.499 561.93C439.002 562.806 438.747 563.783 438.736 564.86V569.317C438.736 570.666 438.984 571.832 439.481 572.815C439.99 573.797 440.706 574.555 441.63 575.087C442.553 575.62 443.648 575.886 444.915 575.886C445.755 575.886 446.524 575.768 447.223 575.531C447.921 575.295 448.519 574.939 449.016 574.466C449.513 573.992 449.892 573.412 450.152 572.726L457.148 573.188C456.793 574.868 456.065 576.336 454.964 577.591C453.875 578.834 452.467 579.804 450.738 580.503C449.022 581.189 447.039 581.533 444.79 581.533ZM466.665 581.462C465.493 581.462 464.487 581.047 463.647 580.219C462.818 579.378 462.404 578.372 462.404 577.2C462.404 576.04 462.818 575.046 463.647 574.217C464.487 573.389 465.493 572.974 466.665 572.974C467.802 572.974 468.796 573.389 469.648 574.217C470.5 575.046 470.927 576.04 470.927 577.2C470.927 577.982 470.725 578.698 470.323 579.349C469.932 579.988 469.417 580.503 468.778 580.893C468.139 581.272 467.435 581.462 466.665 581.462ZM466.665 562.357C465.493 562.357 464.487 561.942 463.647 561.114C462.818 560.285 462.404 559.279 462.404 558.095C462.404 556.935 462.818 555.947 463.647 555.13C464.487 554.301 465.493 553.887 466.665 553.887C467.802 553.887 468.796 554.301 469.648 555.13C470.5 555.947 470.927 556.935 470.927 558.095C470.927 558.888 470.725 559.61 470.323 560.261C469.932 560.901 469.417 561.41 468.778 561.788C468.139 562.167 467.435 562.357 466.665 562.357ZM5.48358 646.297V601.357H19.4928V607.004H12.7989V640.633H19.4928V646.297H5.48358ZM39.4191 605.636V642H31.7309V612.934H31.5178L23.1904 618.154V611.336L32.1926 605.636H39.4191ZM62.3195 642.799C59.2655 642.787 56.6377 642.036 54.436 640.544C52.2461 639.053 50.5593 636.892 49.3756 634.063C48.2037 631.234 47.6237 627.831 47.6356 623.854C47.6356 619.888 48.2215 616.509 49.3934 613.715C50.5771 610.922 52.2639 608.797 54.4537 607.341C56.6555 605.873 59.2774 605.139 62.3195 605.139C65.3617 605.139 67.9777 605.873 70.1675 607.341C72.3692 608.809 74.0619 610.939 75.2457 613.733C76.4294 616.515 77.0153 619.888 77.0035 623.854C77.0035 627.843 76.4116 631.252 75.2279 634.081C74.056 636.91 72.3751 639.07 70.1853 640.562C67.9954 642.053 65.3735 642.799 62.3195 642.799ZM62.3195 636.425C64.4028 636.425 66.066 635.377 67.3089 633.282C68.5518 631.187 69.1673 628.044 69.1555 623.854C69.1555 621.096 68.8714 618.799 68.3032 616.964C67.7468 615.13 66.9537 613.751 65.9239 612.827C64.9059 611.904 63.7045 611.442 62.3195 611.442C60.248 611.442 58.5908 612.478 57.3479 614.55C56.105 616.621 55.4777 619.723 55.4658 623.854C55.4658 626.647 55.744 628.979 56.3003 630.849C56.8685 632.708 57.6675 634.105 58.6974 635.04C59.7272 635.963 60.9346 636.425 62.3195 636.425ZM96.7433 642.799C93.6894 642.787 91.0615 642.036 88.8598 640.544C86.67 639.053 84.9832 636.892 83.7994 634.063C82.6276 631.234 82.0476 627.831 82.0594 623.854C82.0594 619.888 82.6453 616.509 83.8172 613.715C85.0009 610.922 86.6877 608.797 88.8776 607.341C91.0793 605.873 93.7012 605.139 96.7433 605.139C99.7855 605.139 102.401 605.873 104.591 607.341C106.793 608.809 108.486 610.939 109.669 613.733C110.853 616.515 111.439 619.888 111.427 623.854C111.427 627.843 110.835 631.252 109.652 634.081C108.48 636.91 106.799 639.07 104.609 640.562C102.419 642.053 99.7973 642.799 96.7433 642.799ZM96.7433 636.425C98.8267 636.425 100.49 635.377 101.733 633.282C102.976 631.187 103.591 628.044 103.579 623.854C103.579 621.096 103.295 618.799 102.727 616.964C102.171 615.13 101.378 613.751 100.348 612.827C99.3298 611.904 98.1283 611.442 96.7433 611.442C94.6718 611.442 93.0146 612.478 91.7718 614.55C90.5289 616.621 89.9015 619.723 89.8896 623.854C89.8896 626.647 90.1678 628.979 90.7242 630.849C91.2923 632.708 92.0914 634.105 93.1212 635.04C94.151 635.963 95.3584 636.425 96.7433 636.425ZM131.167 642.799C128.113 642.787 125.485 642.036 123.284 640.544C121.094 639.053 119.407 636.892 118.223 634.063C117.051 631.234 116.471 627.831 116.483 623.854C116.483 619.888 117.069 616.509 118.241 613.715C119.425 610.922 121.112 608.797 123.301 607.341C125.503 605.873 128.125 605.139 131.167 605.139C134.209 605.139 136.825 605.873 139.015 607.341C141.217 608.809 142.91 610.939 144.093 613.733C145.277 616.515 145.863 619.888 145.851 623.854C145.851 627.843 145.259 631.252 144.076 634.081C142.904 636.91 141.223 639.07 139.033 640.562C136.843 642.053 134.221 642.799 131.167 642.799ZM131.167 636.425C133.251 636.425 134.914 635.377 136.157 633.282C137.399 631.187 138.015 628.044 138.003 623.854C138.003 621.096 137.719 618.799 137.151 616.964C136.594 615.13 135.801 613.751 134.772 612.827C133.754 611.904 132.552 611.442 131.167 611.442C129.096 611.442 127.438 612.478 126.196 614.55C124.953 616.621 124.325 619.723 124.313 623.854C124.313 626.647 124.592 628.979 125.148 630.849C125.716 632.708 126.515 634.105 127.545 635.04C128.575 635.963 129.782 636.425 131.167 636.425ZM158.16 637.028L157.965 638.982C157.811 640.544 157.515 642.101 157.077 643.651C156.651 645.214 156.201 646.628 155.728 647.895C155.266 649.161 154.893 650.156 154.609 650.878H149.709C149.886 650.179 150.129 649.203 150.437 647.948C150.744 646.705 151.034 645.308 151.307 643.758C151.579 642.207 151.75 640.627 151.821 639.017L151.91 637.028H158.16ZM190.689 605.636V642H183V612.934H182.787L174.46 618.154V611.336L183.462 605.636H190.689ZM213.589 642.799C210.535 642.787 207.907 642.036 205.706 640.544C203.516 639.053 201.829 636.892 200.645 634.063C199.473 631.234 198.893 627.831 198.905 623.854C198.905 619.888 199.491 616.509 200.663 613.715C201.847 610.922 203.533 608.797 205.723 607.341C207.925 605.873 210.547 605.139 213.589 605.139C216.631 605.139 219.247 605.873 221.437 607.341C223.639 608.809 225.331 610.939 226.515 613.733C227.699 616.515 228.285 619.888 228.273 623.854C228.273 627.843 227.681 631.252 226.497 634.081C225.326 636.91 223.645 639.07 221.455 640.562C219.265 642.053 216.643 642.799 213.589 642.799ZM213.589 636.425C215.672 636.425 217.335 635.377 218.578 633.282C219.821 631.187 220.437 628.044 220.425 623.854C220.425 621.096 220.141 618.799 219.573 616.964C219.016 615.13 218.223 613.751 217.193 612.827C216.175 611.904 214.974 611.442 213.589 611.442C211.518 611.442 209.86 612.478 208.617 614.55C207.375 616.621 206.747 619.723 206.735 623.854C206.735 626.647 207.014 628.979 207.57 630.849C208.138 632.708 208.937 634.105 209.967 635.04C210.997 635.963 212.204 636.425 213.589 636.425ZM248.013 642.799C244.959 642.787 242.331 642.036 240.129 640.544C237.939 639.053 236.253 636.892 235.069 634.063C233.897 631.234 233.317 627.831 233.329 623.854C233.329 619.888 233.915 616.509 235.087 613.715C236.27 610.922 237.957 608.797 240.147 607.341C242.349 605.873 244.971 605.139 248.013 605.139C251.055 605.139 253.671 605.873 255.861 607.341C258.063 608.809 259.755 610.939 260.939 613.733C262.123 616.515 262.709 619.888 262.697 623.854C262.697 627.843 262.105 631.252 260.921 634.081C259.749 636.91 258.069 639.07 255.879 640.562C253.689 642.053 251.067 642.799 248.013 642.799ZM248.013 636.425C250.096 636.425 251.759 635.377 253.002 633.282C254.245 631.187 254.861 628.044 254.849 623.854C254.849 621.096 254.565 618.799 253.997 616.964C253.44 615.13 252.647 613.751 251.617 612.827C250.599 611.904 249.398 611.442 248.013 611.442C245.941 611.442 244.284 612.478 243.041 614.55C241.798 616.621 241.171 619.723 241.159 623.854C241.159 626.647 241.437 628.979 241.994 630.849C242.562 632.708 243.361 634.105 244.391 635.04C245.421 635.963 246.628 636.425 248.013 636.425ZM282.437 642.799C279.383 642.787 276.755 642.036 274.553 640.544C272.363 639.053 270.677 636.892 269.493 634.063C268.321 631.234 267.741 627.831 267.753 623.854C267.753 619.888 268.339 616.509 269.511 613.715C270.694 610.922 272.381 608.797 274.571 607.341C276.773 605.873 279.395 605.139 282.437 605.139C285.479 605.139 288.095 605.873 290.285 607.341C292.486 608.809 294.179 610.939 295.363 613.733C296.547 616.515 297.132 619.888 297.121 623.854C297.121 627.843 296.529 631.252 295.345 634.081C294.173 636.91 292.492 639.07 290.302 640.562C288.113 642.053 285.491 642.799 282.437 642.799ZM282.437 636.425C284.52 636.425 286.183 635.377 287.426 633.282C288.669 631.187 289.284 628.044 289.273 623.854C289.273 621.096 288.989 618.799 288.42 616.964C287.864 615.13 287.071 613.751 286.041 612.827C285.023 611.904 283.822 611.442 282.437 611.442C280.365 611.442 278.708 612.478 277.465 614.55C276.222 616.621 275.595 619.723 275.583 623.854C275.583 626.647 275.861 628.979 276.418 630.849C276.986 632.708 277.785 634.105 278.815 635.04C279.844 635.963 281.052 636.425 282.437 636.425ZM316.861 642.799C313.807 642.787 311.179 642.036 308.977 640.544C306.787 639.053 305.1 636.892 303.917 634.063C302.745 631.234 302.165 627.831 302.177 623.854C302.177 619.888 302.763 616.509 303.934 613.715C305.118 610.922 306.805 608.797 308.995 607.341C311.196 605.873 313.818 605.139 316.861 605.139C319.903 605.139 322.519 605.873 324.709 607.341C326.91 608.809 328.603 610.939 329.787 613.733C330.97 616.515 331.556 619.888 331.544 623.854C331.544 627.843 330.953 631.252 329.769 634.081C328.597 636.91 326.916 639.07 324.726 640.562C322.536 642.053 319.915 642.799 316.861 642.799ZM316.861 636.425C318.944 636.425 320.607 635.377 321.85 633.282C323.093 631.187 323.708 628.044 323.696 623.854C323.696 621.096 323.412 618.799 322.844 616.964C322.288 615.13 321.495 613.751 320.465 612.827C319.447 611.904 318.245 611.442 316.861 611.442C314.789 611.442 313.132 612.478 311.889 614.55C310.646 616.621 310.019 619.723 310.007 623.854C310.007 626.647 310.285 628.979 310.841 630.849C311.41 632.708 312.209 634.105 313.238 635.04C314.268 635.963 315.476 636.425 316.861 636.425ZM343.854 637.028L343.658 638.982C343.504 640.544 343.208 642.101 342.771 643.651C342.344 645.214 341.895 646.628 341.421 647.895C340.959 649.161 340.587 650.156 340.302 650.878H335.402C335.579 650.179 335.822 649.203 336.13 647.948C336.438 646.705 336.728 645.308 337 643.758C337.272 642.207 337.444 640.627 337.515 639.017L337.604 637.028H343.854ZM376.382 605.636V642H368.694V612.934H368.481L360.153 618.154V611.336L369.155 605.636H376.382ZM399.282 642.799C396.228 642.787 393.601 642.036 391.399 640.544C389.209 639.053 387.522 636.892 386.339 634.063C385.167 631.234 384.587 627.831 384.598 623.854C384.598 619.888 385.184 616.509 386.356 613.715C387.54 610.922 389.227 608.797 391.417 607.341C393.618 605.873 396.24 605.139 399.282 605.139C402.325 605.139 404.941 605.873 407.13 607.341C409.332 608.809 411.025 610.939 412.209 613.733C413.392 616.515 413.978 619.888 413.966 623.854C413.966 627.843 413.374 631.252 412.191 634.081C411.019 636.91 409.338 639.07 407.148 640.562C404.958 642.053 402.336 642.799 399.282 642.799ZM399.282 636.425C401.366 636.425 403.029 635.377 404.272 633.282C405.515 631.187 406.13 628.044 406.118 623.854C406.118 621.096 405.834 618.799 405.266 616.964C404.71 615.13 403.917 613.751 402.887 612.827C401.869 611.904 400.667 611.442 399.282 611.442C397.211 611.442 395.554 612.478 394.311 614.55C393.068 616.621 392.441 619.723 392.429 623.854C392.429 626.647 392.707 628.979 393.263 630.849C393.831 632.708 394.63 634.105 395.66 635.04C396.69 635.963 397.897 636.425 399.282 636.425ZM433.706 642.799C430.652 642.787 428.024 642.036 425.823 640.544C423.633 639.053 421.946 636.892 420.762 634.063C419.59 631.234 419.01 627.831 419.022 623.854C419.022 619.888 419.608 616.509 420.78 613.715C421.964 610.922 423.651 608.797 425.84 607.341C428.042 605.873 430.664 605.139 433.706 605.139C436.748 605.139 439.364 605.873 441.554 607.341C443.756 608.809 445.449 610.939 446.632 613.733C447.816 616.515 448.402 619.888 448.39 623.854C448.39 627.843 447.798 631.252 446.615 634.081C445.443 636.91 443.762 639.07 441.572 640.562C439.382 642.053 436.76 642.799 433.706 642.799ZM433.706 636.425C435.79 636.425 437.453 635.377 438.696 633.282C439.938 631.187 440.554 628.044 440.542 623.854C440.542 621.096 440.258 618.799 439.69 616.964C439.134 615.13 438.34 613.751 437.311 612.827C436.293 611.904 435.091 611.442 433.706 611.442C431.635 611.442 429.978 612.478 428.735 614.55C427.492 616.621 426.864 619.723 426.853 623.854C426.853 626.647 427.131 628.979 427.687 630.849C428.255 632.708 429.054 634.105 430.084 635.04C431.114 635.963 432.321 636.425 433.706 636.425ZM468.13 642.799C465.076 642.787 462.448 642.036 460.247 640.544C458.057 639.053 456.37 636.892 455.186 634.063C454.014 631.234 453.434 627.831 453.446 623.854C453.446 619.888 454.032 616.509 455.204 613.715C456.388 610.922 458.074 608.797 460.264 607.341C462.466 605.873 465.088 605.139 468.13 605.139C471.172 605.139 473.788 605.873 475.978 607.341C478.18 608.809 479.872 610.939 481.056 613.733C482.24 616.515 482.826 619.888 482.814 623.854C482.814 627.843 482.222 631.252 481.038 634.081C479.867 636.91 478.186 639.07 475.996 640.562C473.806 642.053 471.184 642.799 468.13 642.799ZM468.13 636.425C470.213 636.425 471.877 635.377 473.119 633.282C474.362 631.187 474.978 628.044 474.966 623.854C474.966 621.096 474.682 618.799 474.114 616.964C473.557 615.13 472.764 613.751 471.734 612.827C470.716 611.904 469.515 611.442 468.13 611.442C466.059 611.442 464.401 612.478 463.158 614.55C461.916 616.621 461.288 619.723 461.276 623.854C461.276 626.647 461.555 628.979 462.111 630.849C462.679 632.708 463.478 634.105 464.508 635.04C465.538 635.963 466.745 636.425 468.13 636.425ZM500.512 601.357V646.297H486.503V640.633H493.197V607.004H486.503V601.357H500.512Z" fill="#737370"/>
<path d="M1328.96 437.247C1332.47 433.731 1334.45 428.965 1334.45 423.997C1334.45 419.028 1332.47 414.262 1328.96 410.747L1258.26 340.009C1254.74 336.492 1249.97 334.516 1245 334.516C1240.02 334.516 1235.25 336.492 1231.74 340.009C1228.22 343.527 1226.24 348.297 1226.24 353.272C1226.24 358.246 1228.22 363.017 1231.74 366.534L1270.44 405.247L1126.25 405.247C1121.28 405.247 1116.51 407.222 1112.99 410.738C1109.47 414.255 1107.5 419.024 1107.5 423.997C1107.5 428.969 1109.47 433.739 1112.99 437.255C1116.51 440.771 1121.28 442.747 1126.25 442.747L1270.44 442.747L1231.74 481.447C1230 483.188 1228.61 485.256 1227.67 487.532C1226.73 489.807 1226.24 492.246 1226.24 494.709C1226.24 497.172 1226.73 499.611 1227.67 501.887C1228.61 504.162 1230 506.23 1231.74 507.972C1233.48 509.713 1235.55 511.095 1237.82 512.037C1240.1 512.98 1242.54 513.465 1245 513.465C1247.46 513.465 1249.9 512.98 1252.18 512.037C1254.45 511.095 1256.52 509.713 1258.26 507.972L1328.96 437.247Z" fill="#82D1F5"/>
<path d="M1966.91 170.497C1964.26 170.497 1961.9 170.041 1959.82 169.13C1957.76 168.207 1956.14 166.94 1954.94 165.33C1953.76 163.709 1953.15 161.838 1953.11 159.719H1960.85C1960.9 160.607 1961.19 161.388 1961.72 162.063C1962.27 162.726 1962.99 163.241 1963.89 163.608C1964.79 163.975 1965.8 164.158 1966.93 164.158C1968.1 164.158 1969.13 163.951 1970.03 163.537C1970.93 163.123 1971.64 162.549 1972.15 161.815C1972.66 161.081 1972.91 160.234 1972.91 159.276C1972.91 158.305 1972.64 157.447 1972.09 156.701C1971.56 155.943 1970.79 155.352 1969.79 154.925C1968.79 154.499 1967.61 154.286 1966.23 154.286H1962.84V148.64H1966.23C1967.39 148.64 1968.42 148.439 1969.31 148.036C1970.21 147.634 1970.9 147.077 1971.4 146.367C1971.9 145.645 1972.15 144.805 1972.15 143.846C1972.15 142.934 1971.93 142.135 1971.49 141.449C1971.06 140.75 1970.46 140.206 1969.68 139.815C1968.91 139.425 1968.01 139.229 1966.98 139.229C1965.94 139.229 1964.99 139.419 1964.12 139.798C1963.26 140.165 1962.56 140.691 1962.04 141.378C1961.52 142.064 1961.24 142.869 1961.21 143.793H1953.84C1953.88 141.697 1954.47 139.851 1955.63 138.253C1956.79 136.655 1958.36 135.406 1960.32 134.506C1962.3 133.595 1964.53 133.139 1967.02 133.139C1969.53 133.139 1971.72 133.595 1973.6 134.506C1975.48 135.418 1976.95 136.649 1977.99 138.2C1979.04 139.738 1979.56 141.467 1979.55 143.384C1979.56 145.42 1978.93 147.119 1977.65 148.48C1976.38 149.841 1974.73 150.705 1972.7 151.072V151.357C1975.37 151.7 1977.41 152.629 1978.81 154.144C1980.21 155.647 1980.91 157.53 1980.9 159.79C1980.91 161.862 1980.31 163.703 1979.11 165.312C1977.91 166.922 1976.26 168.189 1974.15 169.112C1972.05 170.036 1969.63 170.497 1966.91 170.497Z" fill="#006CA9"/>
<path d="M1515.27 672.497C1512.62 672.497 1510.26 672.041 1508.19 671.13C1506.13 670.207 1504.5 668.94 1503.31 667.33C1502.12 665.709 1501.51 663.838 1501.48 661.719H1509.22C1509.27 662.607 1509.56 663.388 1510.09 664.063C1510.63 664.726 1511.36 665.241 1512.25 665.608C1513.15 665.975 1514.17 666.158 1515.29 666.158C1516.46 666.158 1517.5 665.951 1518.4 665.537C1519.3 665.123 1520 664.549 1520.51 663.815C1521.02 663.081 1521.27 662.234 1521.27 661.276C1521.27 660.305 1521 659.447 1520.46 658.701C1519.93 657.943 1519.16 657.352 1518.15 656.925C1517.16 656.499 1515.97 656.286 1514.6 656.286H1511.21V650.64H1514.6C1515.76 650.64 1516.78 650.439 1517.67 650.036C1518.57 649.634 1519.27 649.077 1519.77 648.367C1520.26 647.645 1520.51 646.805 1520.51 645.846C1520.51 644.934 1520.29 644.135 1519.85 643.449C1519.43 642.75 1518.82 642.206 1518.04 641.815C1517.27 641.425 1516.37 641.229 1515.34 641.229C1514.3 641.229 1513.35 641.419 1512.49 641.798C1511.62 642.165 1510.93 642.691 1510.41 643.378C1509.89 644.064 1509.61 644.869 1509.57 645.793H1502.21C1502.24 643.697 1502.84 641.851 1504 640.253C1505.16 638.655 1506.72 637.406 1508.69 636.506C1510.66 635.595 1512.89 635.139 1515.38 635.139C1517.89 635.139 1520.09 635.595 1521.97 636.506C1523.85 637.418 1525.31 638.649 1526.35 640.2C1527.41 641.738 1527.93 643.467 1527.92 645.384C1527.93 647.42 1527.29 649.119 1526.02 650.48C1524.75 651.841 1523.1 652.705 1521.06 653.072V653.357C1523.74 653.7 1525.77 654.629 1527.17 656.144C1528.58 657.647 1529.28 659.53 1529.26 661.79C1529.28 663.862 1528.68 665.703 1527.47 667.312C1526.28 668.922 1524.62 670.189 1522.52 671.112C1520.41 672.036 1518 672.497 1515.27 672.497ZM1549.05 672.799C1546 672.787 1543.37 672.036 1541.17 670.544C1538.98 669.053 1537.29 666.892 1536.11 664.063C1534.93 661.234 1534.35 657.831 1534.37 653.854C1534.37 649.888 1534.95 646.509 1536.12 643.715C1537.31 640.922 1538.99 638.797 1541.18 637.341C1543.38 635.873 1546.01 635.139 1549.05 635.139C1552.09 635.139 1554.71 635.873 1556.9 637.341C1559.1 638.809 1560.79 640.939 1561.98 643.733C1563.16 646.515 1563.74 649.888 1563.73 653.854C1563.73 657.843 1563.14 661.252 1561.96 664.081C1560.79 666.91 1559.1 669.07 1556.91 670.562C1554.72 672.053 1552.1 672.799 1549.05 672.799ZM1549.05 666.425C1551.13 666.425 1552.8 665.377 1554.04 663.282C1555.28 661.187 1555.9 658.044 1555.88 653.854C1555.88 651.096 1555.6 648.799 1555.03 646.964C1554.48 645.13 1553.68 643.751 1552.65 642.827C1551.64 641.904 1550.43 641.442 1549.05 641.442C1546.98 641.442 1545.32 642.478 1544.08 644.55C1542.83 646.621 1542.21 649.723 1542.2 653.854C1542.2 656.647 1542.47 658.979 1543.03 660.849C1543.6 662.708 1544.4 664.105 1545.43 665.04C1546.46 665.963 1547.66 666.425 1549.05 666.425ZM1583.47 672.799C1580.42 672.787 1577.79 672.036 1575.59 670.544C1573.4 669.053 1571.71 666.892 1570.53 664.063C1569.36 661.234 1568.78 657.831 1568.79 653.854C1568.79 649.888 1569.37 646.509 1570.55 643.715C1571.73 640.922 1573.42 638.797 1575.61 637.341C1577.81 635.873 1580.43 635.139 1583.47 635.139C1586.51 635.139 1589.13 635.873 1591.32 637.341C1593.52 638.809 1595.22 640.939 1596.4 643.733C1597.58 646.515 1598.17 649.888 1598.16 653.854C1598.16 657.843 1597.56 661.252 1596.38 664.081C1595.21 666.91 1593.53 669.07 1591.34 670.562C1589.15 672.053 1586.53 672.799 1583.47 672.799ZM1583.47 666.425C1585.56 666.425 1587.22 665.377 1588.46 663.282C1589.71 661.187 1590.32 658.044 1590.31 653.854C1590.31 651.096 1590.02 648.799 1589.46 646.964C1588.9 645.13 1588.11 643.751 1587.08 642.827C1586.06 641.904 1584.86 641.442 1583.47 641.442C1581.4 641.442 1579.74 642.478 1578.5 644.55C1577.26 646.621 1576.63 649.723 1576.62 653.854C1576.62 656.647 1576.9 658.979 1577.45 660.849C1578.02 662.708 1578.82 664.105 1579.85 665.04C1580.88 665.963 1582.09 666.425 1583.47 666.425ZM1617.9 672.799C1614.84 672.787 1612.21 672.036 1610.01 670.544C1607.82 669.053 1606.14 666.892 1604.95 664.063C1603.78 661.234 1603.2 657.831 1603.21 653.854C1603.21 649.888 1603.8 646.509 1604.97 643.715C1606.15 640.922 1607.84 638.797 1610.03 637.341C1612.23 635.873 1614.85 635.139 1617.9 635.139C1620.94 635.139 1623.55 635.873 1625.74 637.341C1627.95 638.809 1629.64 640.939 1630.82 643.733C1632.01 646.515 1632.59 649.888 1632.58 653.854C1632.58 657.843 1631.99 661.252 1630.81 664.081C1629.63 666.91 1627.95 669.07 1625.76 670.562C1623.57 672.053 1620.95 672.799 1617.9 672.799ZM1617.9 666.425C1619.98 666.425 1621.64 665.377 1622.89 663.282C1624.13 661.187 1624.74 658.044 1624.73 653.854C1624.73 651.096 1624.45 648.799 1623.88 646.964C1623.32 645.13 1622.53 643.751 1621.5 642.827C1620.48 641.904 1619.28 641.442 1617.9 641.442C1615.83 641.442 1614.17 642.478 1612.93 644.55C1611.68 646.621 1611.05 649.723 1611.04 653.854C1611.04 656.647 1611.32 658.979 1611.88 660.849C1612.45 662.708 1613.24 664.105 1614.27 665.04C1615.3 665.963 1616.51 666.425 1617.9 666.425Z" fill="#006CA9"/>
<path d="M1932.49 672.497C1929.83 672.497 1927.47 672.041 1925.4 671.13C1923.34 670.207 1921.71 668.94 1920.52 667.33C1919.33 665.709 1918.72 663.838 1918.69 661.719H1926.43C1926.48 662.607 1926.77 663.388 1927.3 664.063C1927.85 664.726 1928.57 665.241 1929.47 665.608C1930.37 665.975 1931.38 666.158 1932.5 666.158C1933.67 666.158 1934.71 665.951 1935.61 665.537C1936.51 665.123 1937.21 664.549 1937.72 663.815C1938.23 663.081 1938.49 662.234 1938.49 661.276C1938.49 660.305 1938.21 659.447 1937.67 658.701C1937.14 657.943 1936.37 657.352 1935.36 656.925C1934.37 656.499 1933.18 656.286 1931.81 656.286H1928.42V650.64H1931.81C1932.97 650.64 1933.99 650.439 1934.88 650.036C1935.78 649.634 1936.48 649.077 1936.98 648.367C1937.47 647.645 1937.72 646.805 1937.72 645.846C1937.72 644.934 1937.5 644.135 1937.07 643.449C1936.64 642.75 1936.04 642.206 1935.26 641.815C1934.49 641.425 1933.59 641.229 1932.56 641.229C1931.51 641.229 1930.56 641.419 1929.7 641.798C1928.83 642.165 1928.14 642.691 1927.62 643.378C1927.1 644.064 1926.82 644.869 1926.79 645.793H1919.42C1919.45 643.697 1920.05 641.851 1921.21 640.253C1922.37 638.655 1923.93 637.406 1925.9 636.506C1927.87 635.595 1930.11 635.139 1932.59 635.139C1935.1 635.139 1937.3 635.595 1939.18 636.506C1941.06 637.418 1942.52 638.649 1943.56 640.2C1944.62 641.738 1945.14 643.467 1945.13 645.384C1945.14 647.42 1944.51 649.119 1943.23 650.48C1941.96 651.841 1940.31 652.705 1938.27 653.072V653.357C1940.95 653.7 1942.98 654.629 1944.38 656.144C1945.79 657.647 1946.49 659.53 1946.48 661.79C1946.49 663.862 1945.89 665.703 1944.68 667.312C1943.49 668.922 1941.84 670.189 1939.73 671.112C1937.62 672.036 1935.21 672.497 1932.49 672.497ZM1966.26 672.799C1963.21 672.787 1960.58 672.036 1958.38 670.544C1956.19 669.053 1954.5 666.892 1953.32 664.063C1952.15 661.234 1951.57 657.831 1951.58 653.854C1951.58 649.888 1952.16 646.509 1953.33 643.715C1954.52 640.922 1956.21 638.797 1958.4 637.341C1960.6 635.873 1963.22 635.139 1966.26 635.139C1969.3 635.139 1971.92 635.873 1974.11 637.341C1976.31 638.809 1978 640.939 1979.19 643.733C1980.37 646.515 1980.96 649.888 1980.94 653.854C1980.94 657.843 1980.35 661.252 1979.17 664.081C1978 666.91 1976.32 669.07 1974.13 670.562C1971.94 672.053 1969.31 672.799 1966.26 672.799ZM1966.26 666.425C1968.34 666.425 1970.01 665.377 1971.25 663.282C1972.49 661.187 1973.11 658.044 1973.1 653.854C1973.1 651.096 1972.81 648.799 1972.24 646.964C1971.69 645.13 1970.9 643.751 1969.87 642.827C1968.85 641.904 1967.65 641.442 1966.26 641.442C1964.19 641.442 1962.53 642.478 1961.29 644.55C1960.05 646.621 1959.42 649.723 1959.41 653.854C1959.41 656.647 1959.69 658.979 1960.24 660.849C1960.81 662.708 1961.61 664.105 1962.64 665.04C1963.67 665.963 1964.88 666.425 1966.26 666.425ZM2000.68 672.799C1997.63 672.787 1995 672.036 1992.8 670.544C1990.61 669.053 1988.92 666.892 1987.74 664.063C1986.57 661.234 1985.99 657.831 1986 653.854C1986 649.888 1986.59 646.509 1987.76 643.715C1988.94 640.922 1990.63 638.797 1992.82 637.341C1995.02 635.873 1997.64 635.139 2000.68 635.139C2003.73 635.139 2006.34 635.873 2008.53 637.341C2010.73 638.809 2012.43 640.939 2013.61 643.733C2014.79 646.515 2015.38 649.888 2015.37 653.854C2015.37 657.843 2014.78 661.252 2013.59 664.081C2012.42 666.91 2010.74 669.07 2008.55 670.562C2006.36 672.053 2003.74 672.799 2000.68 672.799ZM2000.68 666.425C2002.77 666.425 2004.43 665.377 2005.67 663.282C2006.92 661.187 2007.53 658.044 2007.52 653.854C2007.52 651.096 2007.24 648.799 2006.67 646.964C2006.11 645.13 2005.32 643.751 2004.29 642.827C2003.27 641.904 2002.07 641.442 2000.68 641.442C1998.61 641.442 1996.96 642.478 1995.71 644.55C1994.47 646.621 1993.84 649.723 1993.83 653.854C1993.83 656.647 1994.11 658.979 1994.67 660.849C1995.23 662.708 1996.03 664.105 1997.06 665.04C1998.09 665.963 1999.3 666.425 2000.68 666.425Z" fill="#006CA9"/>
<path d="M1549.7 170.497C1547.05 170.497 1544.68 170.041 1542.61 169.13C1540.55 168.207 1538.93 166.94 1537.73 165.33C1536.55 163.709 1535.94 161.838 1535.9 159.719H1543.64C1543.69 160.607 1543.98 161.388 1544.51 162.063C1545.06 162.726 1545.78 163.241 1546.68 163.608C1547.58 163.975 1548.59 164.158 1549.71 164.158C1550.89 164.158 1551.92 163.951 1552.82 163.537C1553.72 163.123 1554.43 162.549 1554.94 161.815C1555.44 161.081 1555.7 160.234 1555.7 159.276C1555.7 158.305 1555.43 157.447 1554.88 156.701C1554.35 155.943 1553.58 155.352 1552.57 154.925C1551.58 154.499 1550.4 154.286 1549.02 154.286H1545.63V148.64H1549.02C1550.18 148.64 1551.21 148.439 1552.09 148.036C1552.99 147.634 1553.69 147.077 1554.19 146.367C1554.69 145.645 1554.94 144.805 1554.94 143.846C1554.94 142.934 1554.72 142.135 1554.28 141.449C1553.85 140.75 1553.25 140.206 1552.47 139.815C1551.7 139.425 1550.8 139.229 1549.77 139.229C1548.73 139.229 1547.77 139.419 1546.91 139.798C1546.05 140.165 1545.35 140.691 1544.83 141.378C1544.31 142.064 1544.03 142.869 1544 143.793H1536.63C1536.66 141.697 1537.26 139.851 1538.42 138.253C1539.58 136.655 1541.14 135.406 1543.11 134.506C1545.09 133.595 1547.32 133.139 1549.8 133.139C1552.31 133.139 1554.51 133.595 1556.39 134.506C1558.27 135.418 1559.73 136.649 1560.78 138.2C1561.83 139.738 1562.35 141.467 1562.34 143.384C1562.35 145.42 1561.72 147.119 1560.44 148.48C1559.17 149.841 1557.52 150.705 1555.49 151.072V151.357C1558.16 151.7 1560.2 152.629 1561.59 154.144C1563 155.647 1563.7 157.53 1563.69 159.79C1563.7 161.862 1563.1 163.703 1561.9 165.312C1560.7 166.922 1559.05 168.189 1556.94 169.112C1554.83 170.036 1552.42 170.497 1549.7 170.497ZM1583.47 170.799C1580.42 170.787 1577.79 170.036 1575.59 168.544C1573.4 167.053 1571.71 164.892 1570.53 162.063C1569.36 159.234 1568.78 155.831 1568.79 151.854C1568.79 147.888 1569.37 144.509 1570.55 141.715C1571.73 138.922 1573.42 136.797 1575.61 135.341C1577.81 133.873 1580.43 133.139 1583.47 133.139C1586.51 133.139 1589.13 133.873 1591.32 135.341C1593.52 136.809 1595.22 138.939 1596.4 141.733C1597.58 144.515 1598.17 147.888 1598.16 151.854C1598.16 155.843 1597.56 159.252 1596.38 162.081C1595.21 164.91 1593.53 167.07 1591.34 168.562C1589.15 170.053 1586.53 170.799 1583.47 170.799ZM1583.47 164.425C1585.56 164.425 1587.22 163.377 1588.46 161.282C1589.71 159.187 1590.32 156.044 1590.31 151.854C1590.31 149.096 1590.02 146.799 1589.46 144.964C1588.9 143.13 1588.11 141.751 1587.08 140.827C1586.06 139.904 1584.86 139.442 1583.47 139.442C1581.4 139.442 1579.74 140.478 1578.5 142.55C1577.26 144.621 1576.63 147.723 1576.62 151.854C1576.62 154.647 1576.9 156.979 1577.45 158.849C1578.02 160.708 1578.82 162.105 1579.85 163.04C1580.88 163.963 1582.09 164.425 1583.47 164.425Z" fill="#006CA9"/>
<line x1="1771" y1="802.031" x2="1771" y2="0.000732422" stroke="#737370" stroke-width="2"/>
<line x1="1371" y1="423" x2="2173.03" y2="423" stroke="#737370" stroke-width="2"/>
<path d="M1809.32 22.418C1800.18 17.2617 1786.88 14 1772 14C1744.38 14 1722 25.1914 1722 39H1734.5C1734.5 28.6387 1751.28 20.25 1772 20.25C1783.43 20.25 1793.56 22.8379 1800.42 26.8711L1788.66 32.75H1822V16.0801L1809.32 22.418ZM1772 57.75C1760.57 57.75 1750.44 55.1621 1743.58 51.1289L1755.34 45.25H1722V61.9199L1734.68 55.582C1743.82 60.7383 1757.14 64 1772 64C1799.62 64 1822 52.8086 1822 39H1809.5C1809.5 49.3613 1792.72 57.75 1772 57.75Z" fill="#82D1F5"/>
<path d="M2106.42 386.676C2101.26 395.816 2098 409.117 2098 424C2098 451.617 2109.19 474 2123 474V461.5C2112.64 461.5 2104.25 444.723 2104.25 424C2104.25 412.574 2106.84 402.438 2110.87 395.582L2116.75 407.34V374H2100.08L2106.42 386.676ZM2141.75 424C2141.75 435.426 2139.16 445.562 2135.13 452.418L2129.25 440.66V474H2145.92L2139.58 461.324C2144.74 452.184 2148 438.863 2148 424C2148 396.383 2136.81 374 2123 374V386.5C2133.36 386.5 2141.75 403.277 2141.75 424Z" fill="#82D1F5"/>
</svg>
